<svg version="1.1" xmlns="http://www.w3.org/2000/svg" xmlns:xlink="http://www.w3.org/1999/xlink" width="1757" height="1057" viewBox="0 0 1757 1057"><defs/><g transform="matrix(1,0,0,1,0,0)"><g><g><g><path fill="none" stroke="#d3d3d3" paint-order="fill stroke markers" d=" M 0 0 L 1200 0" stroke-miterlimit="10" stroke-opacity="0.8" stroke-dasharray="5"/></g><g><path fill="none" stroke="#d3d3d3" paint-order="fill stroke markers" d=" M 0 0 L 0 800" stroke-miterlimit="10" stroke-opacity="0.8" stroke-dasharray="5"/></g></g><g id="_3F9F021A-FDDC-462C-BA3F-2233D5C63AE2" bpmn2nodeid="_3F9F021A-FDDC-462C-BA3F-2233D5C63AE2" transform="matrix(1,0,0,1,290.20001220703125,39.1099853515625)"><g><path fill="none" stroke="none"/></g><g transform="matrix(1,0,0,1,0,0)"><path fill="#f2f2f2" stroke="none" id="_3F9F021A-FDDC-462C-BA3F-2233D5C63AE2?shapeType=BACKGROUND" paint-order="stroke fill markers" d=" M 0 0 L 1416.369873046875 0 L 1416.369873046875 524.8900146484375 L 0 524.8900146484375 L 0 0 Z Z"/></g><g transform="matrix(1,0,0,1,0,0)"><path fill="none" stroke="#000000" id="_3F9F021A-FDDC-462C-BA3F-2233D5C63AE2?shapeType=BORDER&amp;renderType=STROKE" paint-order="fill stroke markers" d=" M 0 0 L 1416.369873046875 0 L 1416.369873046875 524.8900146484375 L 0 524.8900146484375 L 0 0 Z Z" stroke-miterlimit="10" stroke-width="0.5" stroke-dasharray=""/></g><g transform="matrix(-1.8369701987210297e-16,-1,1,-1.8369701987210297e-16,0,356.90985107421875)"><text fill="#000000" stroke="none" font-family="Open Sans" font-size="12pt" font-style="normal" font-weight="normal" text-decoration="normal" x="94.46484375" y="12" text-anchor="middle" dominant-baseline="alphabetic">Customer Representative</text></g><g id="_93D7276B-8C97-436F-A355-EBE7782F4A98" bpmn2nodeid="_93D7276B-8C97-436F-A355-EBE7782F4A98" transform="matrix(1,0,0,1,1289.2200317382812,348.3999938964844)"><g><path fill="none" stroke="none"/></g><g transform="matrix(0.125,0,0,0.125,0,0)"><g transform="matrix(1,0,0,1,0,0)"><path fill="#fce7e7" stroke="none" id="_93D7276B-8C97-436F-A355-EBE7782F4A98?shapeType=BACKGROUND" paint-order="stroke fill markers" d=" M 0 0 M 444 224 C 444 263.9 434.2 300.8 414.4 334.5 C 394.7 368.2 368 394.9 334.4 414.5 C 300.79999999999995 434.1 263.9 444 224 444 C 184.10000000000002 444 147.2 434.2 113.5 414.4 C 79.8 394.7 53.1 368 33.5 334.4 C 13.899999999999999 300.79999999999995 4 263.9 4 224 C 4 184.10000000000002 13.8 147.2 33.6 113.5 C 53.400000000000006 79.80000000000001 80.1 53.1 113.6 33.5 C 147.1 13.899999999999999 184.1 4 224 4 C 263.9 4 300.8 13.8 334.5 33.6 C 368.2 53.400000000000006 394.9 80.1 414.5 113.6 C 434.1 147.1 444 184.1 444 224 Z"/></g><g><g transform="matrix(1,0,0,1,0,0)"><g transform="matrix(1,0,0,1,0,0)"><path fill="#a30000" stroke="none" id="_93D7276B-8C97-436F-A355-EBE7782F4A98?shapeType=BORDER&amp;renderType=FILL" paint-order="stroke fill markers" d=" M 0 0 M 224 0 C 100.3 0 0 100.3 0 224 C 0 347.7 100.3 448 224 448 C 347.7 448 448 347.7 448 224 C 448 100.30000000000001 347.7 0 224 0 Z M 0 0 M 224 400 C 126.8 400 48 321.2 48 224 C 48 126.80000000000001 126.8 48 224 48 C 321.2 48 400 126.8 400 224 C 400 321.2 321.2 400 224 400 Z"/></g></g></g><g><g transform="matrix(1,0,0,1,0,0)"><g transform="matrix(1,0,0,1,0,0)"><path fill="#a30000" stroke="none" id="_93D7276B-8C97-436F-A355-EBE7782F4A98undefined" paint-order="stroke fill markers" d=" M 0 0 M 320.2 220.7 C 320.2 238.1 315.9 254.2 307.3 268.9 C 298.7 283.59999999999997 287.1 295.29999999999995 272.40000000000003 303.79999999999995 C 257.70000000000005 312.4 241.60000000000002 316.69999999999993 224.20000000000005 316.69999999999993 C 206.80000000000007 316.69999999999993 190.70000000000005 312.3999999999999 176.00000000000006 303.79999999999995 C 161.30000000000007 295.19999999999993 149.70000000000005 283.59999999999997 141.10000000000005 268.9 C 132.50000000000006 254.2 128.30000000000004 238.09999999999997 128.30000000000004 220.7 C 128.30000000000004 203.3 132.60000000000005 187.2 141.20000000000005 172.5 C 149.80000000000004 157.8 161.40000000000003 146.1 176.10000000000005 137.5 C 190.80000000000004 128.9 206.90000000000006 124.7 224.30000000000007 124.7 C 241.70000000000007 124.7 257.80000000000007 129 272.50000000000006 137.6 C 287.20000000000005 146.2 298.90000000000003 157.9 307.40000000000003 172.5 C 316 187.2 320.2 203.3 320.2 220.7 Z"/></g></g></g></g><g transform="matrix(1,0,0,1,-51.6484375,61)"><text fill="#000000" stroke="none" font-family="Open Sans" font-size="12pt" font-style="normal" font-weight="normal" text-decoration="normal" x="79.6484375" y="12" text-anchor="middle" dominant-baseline="alphabetic">Completed - Rejected</text></g></g><g id="_3C9C8812-2EE1-411C-88DB-49678C3C19EB" bpmn2nodeid="_3C9C8812-2EE1-411C-88DB-49678C3C19EB" transform="matrix(1,0,0,1,1118.2599487304688,147.36000061035156)"><g><path fill="none" stroke="none"/></g><g transform="matrix(0.125,0,0,0.125,0,0)"><g transform="matrix(1,0,0,1,0,0)"><path fill="#fef4ea" stroke="none" id="_3C9C8812-2EE1-411C-88DB-49678C3C19EB?shapeType=BACKGROUND" paint-order="stroke fill markers" d=" M 0 0 M 224.4 4.3 C 216.4 4.3 208.4 7.3 202.3 13.399999999999999 L 13.5 202.2 C 1.3000000000000007 214.39999999999998 1.3000000000000007 234.2 13.5 246.39999999999998 L 202.2 435.09999999999997 C 208.29999999999998 441.2 216.39999999999998 444.2 224.29999999999998 444.2 C 232.2 444.2 240.29999999999998 441.2 246.39999999999998 435.09999999999997 L 435.09999999999997 246.39999999999998 C 447.29999999999995 234.2 447.29999999999995 214.39999999999998 435.09999999999997 202.2 L 246.5 13.4 C 240.4 7.3 232.4 4.3 224.4 4.3 L 224.4 4.3 Z"/></g><g><g transform="matrix(1,0,0,1,0,0)"><g transform="matrix(1,0,0,1,0,0)"><path fill="#ec7a08" stroke="none" id="_3C9C8812-2EE1-411C-88DB-49678C3C19EB?shapeType=BORDER&amp;renderType=FILL" paint-order="stroke fill markers" d=" M 0 0 M 20.8 212.7 L 213.3 20.2 C 219.60000000000002 13.899999999999999 229.70000000000002 13.899999999999999 235.9 20.2 L 428.4 212.7 C 434.7 219 434.7 229.1 428.4 235.29999999999998 L 235.9 427.8 C 229.6 434.1 219.5 434.1 213.3 427.8 L 20.8 235.3 C 14.5 229.1 14.5 218.9 20.8 212.7 L 20.8 212.7 Z M 0 0 M 0 224 C 0 232.1 3.1 240.3 9.3 246.5 L 201.5 438.7 C 213.9 451.09999999999997 234.1 451.09999999999997 246.5 438.7 L 438.7 246.5 C 444.9 240.3 448 232.1 448 224 C 448 215.9 444.9 207.7 438.7 201.5 L 246.5 9.3 C 234.1 -3.0999999999999996 213.9 -3.0999999999999996 201.5 9.3 L 9.3 201.5 C 3.1 207.7 0 215.9 0 224 L 0 224 Z"/></g></g></g><g><g transform="matrix(1,0,0,1,0,0)"><g transform="matrix(1,0,0,1,0,0)"><path fill="#ec7a08" stroke="none" id="_3C9C8812-2EE1-411C-88DB-49678C3C19EBundefined" paint-order="stroke fill markers" d=" M 0 0 M 298.2 269.2 C 298.2 272.59999999999997 297.09999999999997 275.3 294.7 277.7 L 277.7 294.7 C 275.3 297.09999999999997 272.59999999999997 298.2 269.2 298.2 C 265.8 298.2 263.09999999999997 297.09999999999997 260.7 294.7 L 224 258 L 187.2 294.8 C 184.79999999999998 297.2 182.1 298.3 178.7 298.3 C 175.29999999999998 298.3 172.6 297.2 170.2 294.8 L 153.2 277.8 C 150.79999999999998 275.40000000000003 149.7 272.7 149.7 269.3 C 149.7 265.90000000000003 150.79999999999998 263.2 153.2 260.8 L 190 224 L 153.2 187.2 C 150.79999999999998 184.79999999999998 149.7 182 149.7 178.7 C 149.7 175.29999999999998 150.79999999999998 172.5 153.2 170.2 L 170.2 153.2 C 172.6 150.79999999999998 175.29999999999998 149.7 178.7 149.7 C 182.1 149.7 184.79999999999998 150.79999999999998 187.2 153.2 L 224 190 L 260.8 153.2 C 263.2 150.79999999999998 265.90000000000003 149.7 269.3 149.7 C 272.7 149.7 275.40000000000003 150.79999999999998 277.8 153.2 L 294.8 170.2 C 297.2 172.5 298.3 175.29999999999998 298.3 178.7 C 298.3 182 297.2 184.79999999999998 294.8 187.2 L 258 224 L 294.8 260.8 C 297.1 263.1 298.2 265.9 298.2 269.2 Z"/></g></g></g></g><g transform="matrix(1,0,0,1,-11.4765625,61)"><text fill="#000000" stroke="none" font-family="Open Sans" font-size="12pt" font-style="normal" font-weight="normal" text-decoration="normal" x="39.4765625" y="12" text-anchor="middle" dominant-baseline="alphabetic">Approved?</text></g></g><g id="_3F81A53A-C043-4B76-A3D8-6CF587CAD9C7" bpmn2nodeid="_3F81A53A-C043-4B76-A3D8-6CF587CAD9C7" transform="matrix(1,0,0,1,634.8999633789062,326.4800109863281)"><g><path fill="none" stroke="none"/></g><g transform="matrix(1,0,0,1,0,0)"><path fill="#ffffff" stroke="none" id="_3F81A53A-C043-4B76-A3D8-6CF587CAD9C7?shapeType=BACKGROUND" paint-order="stroke fill markers" d=" M 2 0 L 152 0 L 152 0 A 2 2 0 0 1 154 2 L 154 100 L 154 100 A 2 2 0 0 1 152 102 L 2 102 L 2 102 A 2 2 0 0 1 0 100 L 0 2 L 0 2.0000000000000004 A 2 2 0 0 1 1.9999999999999996 0 Z"/></g><g transform="matrix(1,0,0,1,0,0)"><path fill="none" stroke="#000000" id="_3F81A53A-C043-4B76-A3D8-6CF587CAD9C7?shapeType=BORDER&amp;renderType=STROKE" paint-order="fill stroke markers" d=" M 2 0 L 152 0 L 152 0 A 2 2 0 0 1 154 2 L 154 100 L 154 100 A 2 2 0 0 1 152 102 L 2 102 L 2 102 A 2 2 0 0 1 0 100 L 0 2 L 0 2.0000000000000004 A 2 2 0 0 1 1.9999999999999996 0 Z" stroke-miterlimit="10" stroke-width="1.5" stroke-dasharray=""/></g><g><g transform="matrix(0.06,0,0,0.06,9.4,9.4)"><g transform="matrix(1,0,0,1,0,0)"><path fill="#393f44" stroke="none" id="_3F81A53A-C043-4B76-A3D8-6CF587CAD9C7undefined" paint-order="stroke fill markers" d=" M 0 0 M 16 445.2101 C 16 440.86867 18.784312 431.12906000000004 22.001325 424.21728 C 35.767643 394.6402 77.282944 359.28049 129 333.08362 C 144.51625 325.22398 157.34689 319.96394 167.80739 317.17416 C 171.93153 316.07426 175.72913 314.41389999999996 176.5251 313.36265 C 178.89361 310.23449999999997 180.91404 302.90781 181.72673 294.5 L 182.5 286.5 L 178.50715 283.45457 C 166.30327 274.14645 154.2837 251.67767 148.03953 226.5 C 145.61086 216.70715 145.05603000000002 215.46246 142.98364 215.1579 C 141.70332000000002 214.96974 138.08302 212.24302 134.93852 209.09852 C 123.23314 197.39314000000002 116.89146000000001 177.37556 121.43982000000001 166.48978 C 123.00204000000001 162.75088 128.15457 159.00970999999998 131.75 159.00374 C 134.44781 158.99974 134.47062 158.60296 132.91375 138.78796 C 130.92658 113.4962 134.27903 92.26542699999999 143.13217 74.075676 C 152.23162 55.379835 167.56889 42.88208 189.04934 36.659507000000005 C 210.20334 30.531504000000005 237.79666 30.531504000000005 258.95065999999997 36.659507000000005 C 300.04166 48.562968000000005 318.95842 83.80634 314.95504999999997 141 C 314.31982999999997 150.075 313.62402 157.78816 313.4088 158.14035 C 313.19359 158.49254000000002 314.57532 159.07295000000002 316.47931 159.43014000000002 C 328.92867 161.76565000000002 330.98619 177.01772000000003 321.49638 196.62092 C 316.90319 206.10912000000002 309.35724 214.50797 304.81732 215.18517000000003 C 303.02259 215.45289000000002 302.2931 217.14618000000002 299.94277999999997 226.50000000000003 C 296.65948 239.56693 294.47402 245.30522000000002 287.94764 257.99534000000006 C 282.49071999999995 268.60596000000004 273.03466 281.10922000000005 268.10756999999995 284.2288300000001 L 264.87062 286.27832000000006 L 265.51815999999997 292.88916000000006 C 266.34490999999997 301.32961000000006 268.63948999999997 309.8706000000001 270.87735999999995 312.83742000000007 C 272.06735 314.4150200000001 275.00244999999995 315.78963000000005 280.0630699999999 317.13941000000005 C 291.06929999999994 320.0750300000001 303.61700999999994 325.27420000000006 320.99999999999994 334.10171 C 369.81470999999993 358.89104000000003 410.84810999999996 393.75797 425.03216 422.5 C 429.06985999999995 430.68183 432 440.23198 432 445.2101 L 432 448 L 224 448 L 16 448 L 16 445.2101 Z"/></g></g></g><g transform="matrix(1,0,0,1,4.039999999999992,13.680000000000007)"><g transform="matrix(0.04,0,0,0.04,63.36,69.12)"><g transform="matrix(1,0,0,1,0,0)"><path fill="none" stroke="none"/></g><g transform="matrix(1,0,0,1,0,0)"><path fill="none" stroke="none"/></g></g></g><g transform="matrix(1,0,0,1,35,28.5)"><text fill="#000000" stroke="none" font-family="Open Sans" font-size="12pt" font-style="normal" font-weight="normal" text-decoration="normal" x="52.69140625" y="12" text-anchor="middle" dominant-baseline="alphabetic">User Approve </text><text fill="#000000" stroke="none" font-family="Open Sans" font-size="12pt" font-style="normal" font-weight="normal" text-decoration="normal" x="52.69140625" y="27" text-anchor="middle" dominant-baseline="alphabetic"> High Money   </text><text fill="#000000" stroke="none" font-family="Open Sans" font-size="12pt" font-style="normal" font-weight="normal" text-decoration="normal" x="52.69140625" y="42" text-anchor="middle" dominant-baseline="alphabetic">  Withdrawal   </text></g></g><g id="_9E77F357-40E9-475B-94CC-22B42C099A0F" bpmn2nodeid="_9E77F357-40E9-475B-94CC-22B42C099A0F" transform="matrix(1,0,0,1,52.79998779296875,124)"><g><path fill="none" stroke="none"/></g><g transform="matrix(1,0,0,1,0,0)"><path fill="#ffffff" stroke="none" id="_9E77F357-40E9-475B-94CC-22B42C099A0F?shapeType=BACKGROUND" paint-order="stroke fill markers" d=" M 2 0 L 152 0 L 152 0 A 2 2 0 0 1 154 2 L 154 100 L 154 100 A 2 2 0 0 1 152 102 L 2 102 L 2 102 A 2 2 0 0 1 0 100 L 0 2 L 0 2.0000000000000004 A 2 2 0 0 1 1.9999999999999996 0 Z"/></g><g transform="matrix(1,0,0,1,0,0)"><path fill="none" stroke="rgb(0,0,0)" id="_9E77F357-40E9-475B-94CC-22B42C099A0F?shapeType=BORDER&amp;renderType=STROKE" paint-order="fill stroke markers" d=" M 2 0 L 152 0 L 152 0 A 2 2 0 0 1 154 2 L 154 100 L 154 100 A 2 2 0 0 1 152 102 L 2 102 L 2 102 A 2 2 0 0 1 0 100 L 0 2 L 0 2.0000000000000004 A 2 2 0 0 1 1.9999999999999996 0 Z" stroke-miterlimit="10" stroke-width="1.5" stroke-dasharray=""/></g><g><g transform="matrix(0.06,0,0,0.06,9.4,9.4)"><g transform="matrix(1,0,0,1,0,0)"><path fill="#393f44" stroke="none" id="_9E77F357-40E9-475B-94CC-22B42C099A0Fundefined" paint-order="stroke fill markers" d=" M 0 0 M 16 445.2101 C 16 440.86867 18.784312 431.12906000000004 22.001325 424.21728 C 35.767643 394.6402 77.282944 359.28049 129 333.08362 C 144.51625 325.22398 157.34689 319.96394 167.80739 317.17416 C 171.93153 316.07426 175.72913 314.41389999999996 176.5251 313.36265 C 178.89361 310.23449999999997 180.91404 302.90781 181.72673 294.5 L 182.5 286.5 L 178.50715 283.45457 C 166.30327 274.14645 154.2837 251.67767 148.03953 226.5 C 145.61086 216.70715 145.05603000000002 215.46246 142.98364 215.1579 C 141.70332000000002 214.96974 138.08302 212.24302 134.93852 209.09852 C 123.23314 197.39314000000002 116.89146000000001 177.37556 121.43982000000001 166.48978 C 123.00204000000001 162.75088 128.15457 159.00970999999998 131.75 159.00374 C 134.44781 158.99974 134.47062 158.60296 132.91375 138.78796 C 130.92658 113.4962 134.27903 92.26542699999999 143.13217 74.075676 C 152.23162 55.379835 167.56889 42.88208 189.04934 36.659507000000005 C 210.20334 30.531504000000005 237.79666 30.531504000000005 258.95065999999997 36.659507000000005 C 300.04166 48.562968000000005 318.95842 83.80634 314.95504999999997 141 C 314.31982999999997 150.075 313.62402 157.78816 313.4088 158.14035 C 313.19359 158.49254000000002 314.57532 159.07295000000002 316.47931 159.43014000000002 C 328.92867 161.76565000000002 330.98619 177.01772000000003 321.49638 196.62092 C 316.90319 206.10912000000002 309.35724 214.50797 304.81732 215.18517000000003 C 303.02259 215.45289000000002 302.2931 217.14618000000002 299.94277999999997 226.50000000000003 C 296.65948 239.56693 294.47402 245.30522000000002 287.94764 257.99534000000006 C 282.49071999999995 268.60596000000004 273.03466 281.10922000000005 268.10756999999995 284.2288300000001 L 264.87062 286.27832000000006 L 265.51815999999997 292.88916000000006 C 266.34490999999997 301.32961000000006 268.63948999999997 309.8706000000001 270.87735999999995 312.83742000000007 C 272.06735 314.4150200000001 275.00244999999995 315.78963000000005 280.0630699999999 317.13941000000005 C 291.06929999999994 320.0750300000001 303.61700999999994 325.27420000000006 320.99999999999994 334.10171 C 369.81470999999993 358.89104000000003 410.84810999999996 393.75797 425.03216 422.5 C 429.06985999999995 430.68183 432 440.23198 432 445.2101 L 432 448 L 224 448 L 16 448 L 16 445.2101 Z"/></g></g></g><g transform="matrix(1,0,0,1,4.039999999999992,13.680000000000007)"><g transform="matrix(0.04,0,0,0.04,63.36,69.12)"><g transform="matrix(1,0,0,1,0,0)"><path fill="none" stroke="none"/></g><g transform="matrix(1,0,0,1,0,0)"><path fill="none" stroke="none"/></g></g></g><g transform="matrix(1,0,0,1,35,28.5)"><text fill="#000000" stroke="none" font-family="Open Sans" font-size="12pt" font-style="normal" font-weight="normal" text-decoration="normal" x="55.3359375" y="12" text-anchor="middle" dominant-baseline="alphabetic">Review Money </text><text fill="#000000" stroke="none" font-family="Open Sans" font-size="12pt" font-style="normal" font-weight="normal" text-decoration="normal" x="55.3359375" y="27" text-anchor="middle" dominant-baseline="alphabetic">  Withdrawal    </text><text fill="#000000" stroke="none" font-family="Open Sans" font-size="12pt" font-style="normal" font-weight="normal" text-decoration="normal" x="55.3359375" y="42" text-anchor="middle" dominant-baseline="alphabetic">      Request      </text></g></g><g id="_0523C92B-C281-47D2-AD00-0F249BBFA670" bpmn2nodeid="_0523C92B-C281-47D2-AD00-0F249BBFA670" transform="matrix(1,0,0,1,513.8999633789062,4.790000915527344)"><g><path fill="none" stroke="none"/></g><g transform="matrix(0.125,0,0,0.125,0,0)"><g transform="matrix(1,0,0,1,0,0)"><path fill="#fce7e7" stroke="none" id="_0523C92B-C281-47D2-AD00-0F249BBFA670?shapeType=BACKGROUND" paint-order="stroke fill markers" d=" M 0 0 M 444 224 C 444 263.9 434.2 300.8 414.4 334.5 C 394.7 368.2 368 394.9 334.4 414.5 C 300.79999999999995 434.1 263.9 444 224 444 C 184.10000000000002 444 147.2 434.2 113.5 414.4 C 79.8 394.7 53.1 368 33.5 334.4 C 13.899999999999999 300.79999999999995 4 263.9 4 224 C 4 184.10000000000002 13.8 147.2 33.6 113.5 C 53.400000000000006 79.80000000000001 80.1 53.1 113.6 33.5 C 147.1 13.899999999999999 184.1 4 224 4 C 263.9 4 300.8 13.8 334.5 33.6 C 368.2 53.400000000000006 394.9 80.1 414.5 113.6 C 434.1 147.1 444 184.1 444 224 Z"/></g><g><g transform="matrix(1,0,0,1,0,0)"><g transform="matrix(1,0,0,1,0,0)"><path fill="#a30000" stroke="none" id="_0523C92B-C281-47D2-AD00-0F249BBFA670?shapeType=BORDER&amp;renderType=FILL" paint-order="stroke fill markers" d=" M 0 0 M 224 0 C 100.3 0 0 100.3 0 224 C 0 347.7 100.3 448 224 448 C 347.7 448 448 347.7 448 224 C 448 100.30000000000001 347.7 0 224 0 Z M 0 0 M 224 400 C 126.8 400 48 321.2 48 224 C 48 126.80000000000001 126.8 48 224 48 C 321.2 48 400 126.8 400 224 C 400 321.2 321.2 400 224 400 Z"/></g></g></g></g><g transform="matrix(1,0,0,1,-55.72265625,61)"><text fill="#000000" stroke="none" font-family="Open Sans" font-size="12pt" font-style="normal" font-weight="normal" text-decoration="normal" x="83.72265625" y="12" text-anchor="middle" dominant-baseline="alphabetic">Completed - Approved</text></g></g><g id="_A5ECD9A3-A36A-4BE1-B271-DE0F23DF485F" bpmn2nodeid="_A5ECD9A3-A36A-4BE1-B271-DE0F23DF485F" transform="matrix(1,0,0,1,514.260009765625,350.3999938964844)"><g><path fill="none" stroke="none"/></g><g transform="matrix(0.125,0,0,0.125,0,0)"><g transform="matrix(1,0,0,1,0,0)"><path fill="#fef4ea" stroke="none" id="_A5ECD9A3-A36A-4BE1-B271-DE0F23DF485F?shapeType=BACKGROUND" paint-order="stroke fill markers" d=" M 0 0 M 224.4 4.3 C 216.4 4.3 208.4 7.3 202.3 13.399999999999999 L 13.5 202.2 C 1.3000000000000007 214.39999999999998 1.3000000000000007 234.2 13.5 246.39999999999998 L 202.2 435.09999999999997 C 208.29999999999998 441.2 216.39999999999998 444.2 224.29999999999998 444.2 C 232.2 444.2 240.29999999999998 441.2 246.39999999999998 435.09999999999997 L 435.09999999999997 246.39999999999998 C 447.29999999999995 234.2 447.29999999999995 214.39999999999998 435.09999999999997 202.2 L 246.5 13.4 C 240.4 7.3 232.4 4.3 224.4 4.3 L 224.4 4.3 Z"/></g><g><g transform="matrix(1,0,0,1,0,0)"><g transform="matrix(1,0,0,1,0,0)"><path fill="rgb(236,122,8)" stroke="none" id="_A5ECD9A3-A36A-4BE1-B271-DE0F23DF485F?shapeType=BORDER&amp;renderType=FILL" paint-order="stroke fill markers" d=" M 0 0 M 20.8 212.7 L 213.3 20.2 C 219.60000000000002 13.899999999999999 229.70000000000002 13.899999999999999 235.9 20.2 L 428.4 212.7 C 434.7 219 434.7 229.1 428.4 235.29999999999998 L 235.9 427.8 C 229.6 434.1 219.5 434.1 213.3 427.8 L 20.8 235.3 C 14.5 229.1 14.5 218.9 20.8 212.7 L 20.8 212.7 Z M 0 0 M 0 224 C 0 232.1 3.1 240.3 9.3 246.5 L 201.5 438.7 C 213.9 451.09999999999997 234.1 451.09999999999997 246.5 438.7 L 438.7 246.5 C 444.9 240.3 448 232.1 448 224 C 448 215.9 444.9 207.7 438.7 201.5 L 246.5 9.3 C 234.1 -3.0999999999999996 213.9 -3.0999999999999996 201.5 9.3 L 9.3 201.5 C 3.1 207.7 0 215.9 0 224 L 0 224 Z"/></g></g></g><g><g transform="matrix(1,0,0,1,0,0)"><g transform="matrix(1,0,0,1,0,0)"><path fill="#ec7a08" stroke="none" id="_A5ECD9A3-A36A-4BE1-B271-DE0F23DF485Fundefined" paint-order="stroke fill markers" d=" M 0 0 M 312 212 L 312 236 C 312 239.4 310.9 242.1 308.5 244.5 C 306.1 246.9 303.4 248 300 248 L 248 248 L 248 300 C 248 303.4 246.9 306.1 244.5 308.5 C 242.1 310.9 239.4 312 236 312 L 212 312 C 208.6 312 205.9 310.9 203.5 308.5 C 201.1 306.1 200 303.4 200 300 L 200 248 L 148 248 C 144.6 248 141.9 246.9 139.5 244.5 C 137.1 242.1 136 239.4 136 236 L 136 212 C 136 208.6 137.1 205.9 139.5 203.5 C 141.9 201.1 144.6 200 148 200 L 200 200 L 200 148 C 200 144.6 201.1 141.9 203.5 139.5 C 205.9 137.1 208.6 136 212 136 L 236 136 C 239.4 136 242.1 137.1 244.5 139.5 C 246.9 141.9 248 144.6 248 148 L 248 200 L 300 200 C 303.4 200 306.1 201.1 308.5 203.5 C 310.9 205.9 312 208.6 312 212 Z"/></g></g></g></g><g transform="matrix(1,0,0,1,28,61)"/></g><g id="_C6A6B594-8B8E-4BD9-A1DA-1B44098C3442" bpmn2nodeid="_C6A6B594-8B8E-4BD9-A1DA-1B44098C3442" transform="matrix(1,0,0,1,849.2599487304688,124.39999389648438)"><g><path fill="none" stroke="none"/></g><g transform="matrix(1,0,0,1,0,0)"><path fill="#ffffff" stroke="none" id="_C6A6B594-8B8E-4BD9-A1DA-1B44098C3442?shapeType=BACKGROUND" paint-order="stroke fill markers" d=" M 2 0 L 152 0 L 152 0 A 2 2 0 0 1 154 2 L 154 100 L 154 100 A 2 2 0 0 1 152 102 L 2 102 L 2 102 A 2 2 0 0 1 0 100 L 0 2 L 0 2.0000000000000004 A 2 2 0 0 1 1.9999999999999996 0 Z"/></g><g transform="matrix(1,0,0,1,0,0)"><path fill="none" stroke="rgb(0,0,0)" id="_C6A6B594-8B8E-4BD9-A1DA-1B44098C3442?shapeType=BORDER&amp;renderType=STROKE" paint-order="fill stroke markers" d=" M 2 0 L 152 0 L 152 0 A 2 2 0 0 1 154 2 L 154 100 L 154 100 A 2 2 0 0 1 152 102 L 2 102 L 2 102 A 2 2 0 0 1 0 100 L 0 2 L 0 2.0000000000000004 A 2 2 0 0 1 1.9999999999999996 0 Z" stroke-miterlimit="10" stroke-width="1.5" stroke-dasharray=""/></g><g><g transform="matrix(0.06,0,0,0.06,9.4,9.4)"><g transform="matrix(1,0,0,1,0,0)"><path fill="#393f44" stroke="none" id="_C6A6B594-8B8E-4BD9-A1DA-1B44098C3442undefined" paint-order="stroke fill markers" d=" M 0 0 M 16 445.2101 C 16 440.86867 18.784312 431.12906000000004 22.001325 424.21728 C 35.767643 394.6402 77.282944 359.28049 129 333.08362 C 144.51625 325.22398 157.34689 319.96394 167.80739 317.17416 C 171.93153 316.07426 175.72913 314.41389999999996 176.5251 313.36265 C 178.89361 310.23449999999997 180.91404 302.90781 181.72673 294.5 L 182.5 286.5 L 178.50715 283.45457 C 166.30327 274.14645 154.2837 251.67767 148.03953 226.5 C 145.61086 216.70715 145.05603000000002 215.46246 142.98364 215.1579 C 141.70332000000002 214.96974 138.08302 212.24302 134.93852 209.09852 C 123.23314 197.39314000000002 116.89146000000001 177.37556 121.43982000000001 166.48978 C 123.00204000000001 162.75088 128.15457 159.00970999999998 131.75 159.00374 C 134.44781 158.99974 134.47062 158.60296 132.91375 138.78796 C 130.92658 113.4962 134.27903 92.26542699999999 143.13217 74.075676 C 152.23162 55.379835 167.56889 42.88208 189.04934 36.659507000000005 C 210.20334 30.531504000000005 237.79666 30.531504000000005 258.95065999999997 36.659507000000005 C 300.04166 48.562968000000005 318.95842 83.80634 314.95504999999997 141 C 314.31982999999997 150.075 313.62402 157.78816 313.4088 158.14035 C 313.19359 158.49254000000002 314.57532 159.07295000000002 316.47931 159.43014000000002 C 328.92867 161.76565000000002 330.98619 177.01772000000003 321.49638 196.62092 C 316.90319 206.10912000000002 309.35724 214.50797 304.81732 215.18517000000003 C 303.02259 215.45289000000002 302.2931 217.14618000000002 299.94277999999997 226.50000000000003 C 296.65948 239.56693 294.47402 245.30522000000002 287.94764 257.99534000000006 C 282.49071999999995 268.60596000000004 273.03466 281.10922000000005 268.10756999999995 284.2288300000001 L 264.87062 286.27832000000006 L 265.51815999999997 292.88916000000006 C 266.34490999999997 301.32961000000006 268.63948999999997 309.8706000000001 270.87735999999995 312.83742000000007 C 272.06735 314.4150200000001 275.00244999999995 315.78963000000005 280.0630699999999 317.13941000000005 C 291.06929999999994 320.0750300000001 303.61700999999994 325.27420000000006 320.99999999999994 334.10171 C 369.81470999999993 358.89104000000003 410.84810999999996 393.75797 425.03216 422.5 C 429.06985999999995 430.68183 432 440.23198 432 445.2101 L 432 448 L 224 448 L 16 448 L 16 445.2101 Z"/></g></g></g><g transform="matrix(1,0,0,1,4.039999999999992,13.680000000000007)"><g transform="matrix(0.04,0,0,0.04,63.36,69.12)"><g transform="matrix(1,0,0,1,0,0)"><path fill="none" stroke="none"/></g><g transform="matrix(1,0,0,1,0,0)"><path fill="none" stroke="none"/></g></g></g><g transform="matrix(1,0,0,1,35,21)"><text fill="#000000" stroke="none" font-family="Open Sans" font-size="12pt" font-style="normal" font-weight="normal" text-decoration="normal" x="42.31640625" y="12" text-anchor="middle" dominant-baseline="alphabetic">  Approve   </text><text fill="#000000" stroke="none" font-family="Open Sans" font-size="12pt" font-style="normal" font-weight="normal" text-decoration="normal" x="42.31640625" y="27" text-anchor="middle" dominant-baseline="alphabetic"> Customer  </text><text fill="#000000" stroke="none" font-family="Open Sans" font-size="12pt" font-style="normal" font-weight="normal" text-decoration="normal" x="42.31640625" y="42" text-anchor="middle" dominant-baseline="alphabetic">   Money     </text><text fill="#000000" stroke="none" font-family="Open Sans" font-size="12pt" font-style="normal" font-weight="normal" text-decoration="normal" x="42.31640625" y="57" text-anchor="middle" dominant-baseline="alphabetic">Withdrawal</text></g></g><g id="_461F11D1-BCFC-4710-93B6-2B1B02C62E8D" bpmn2nodeid="_461F11D1-BCFC-4710-93B6-2B1B02C62E8D" transform="matrix(1,0,0,1,902.7999877929688,350)"><g><path fill="none" stroke="none"/></g><g transform="matrix(0.125,0,0,0.125,0,0)"><g transform="matrix(1,0,0,1,0,0)"><path fill="#fef4ea" stroke="none" id="_461F11D1-BCFC-4710-93B6-2B1B02C62E8D?shapeType=BACKGROUND" paint-order="stroke fill markers" d=" M 0 0 M 224.4 4.3 C 216.4 4.3 208.4 7.3 202.3 13.399999999999999 L 13.5 202.2 C 1.3000000000000007 214.39999999999998 1.3000000000000007 234.2 13.5 246.39999999999998 L 202.2 435.09999999999997 C 208.29999999999998 441.2 216.39999999999998 444.2 224.29999999999998 444.2 C 232.2 444.2 240.29999999999998 441.2 246.39999999999998 435.09999999999997 L 435.09999999999997 246.39999999999998 C 447.29999999999995 234.2 447.29999999999995 214.39999999999998 435.09999999999997 202.2 L 246.5 13.4 C 240.4 7.3 232.4 4.3 224.4 4.3 L 224.4 4.3 Z"/></g><g><g transform="matrix(1,0,0,1,0,0)"><g transform="matrix(1,0,0,1,0,0)"><path fill="#ec7a08" stroke="none" id="_461F11D1-BCFC-4710-93B6-2B1B02C62E8D?shapeType=BORDER&amp;renderType=FILL" paint-order="stroke fill markers" d=" M 0 0 M 20.8 212.7 L 213.3 20.2 C 219.60000000000002 13.899999999999999 229.70000000000002 13.899999999999999 235.9 20.2 L 428.4 212.7 C 434.7 219 434.7 229.1 428.4 235.29999999999998 L 235.9 427.8 C 229.6 434.1 219.5 434.1 213.3 427.8 L 20.8 235.3 C 14.5 229.1 14.5 218.9 20.8 212.7 L 20.8 212.7 Z M 0 0 M 0 224 C 0 232.1 3.1 240.3 9.3 246.5 L 201.5 438.7 C 213.9 451.09999999999997 234.1 451.09999999999997 246.5 438.7 L 438.7 246.5 C 444.9 240.3 448 232.1 448 224 C 448 215.9 444.9 207.7 438.7 201.5 L 246.5 9.3 C 234.1 -3.0999999999999996 213.9 -3.0999999999999996 201.5 9.3 L 9.3 201.5 C 3.1 207.7 0 215.9 0 224 L 0 224 Z"/></g></g></g><g><g transform="matrix(1,0,0,1,0,0)"><g transform="matrix(1,0,0,1,0,0)"><path fill="#ec7a08" stroke="none" id="_461F11D1-BCFC-4710-93B6-2B1B02C62E8Dundefined" paint-order="stroke fill markers" d=" M 0 0 M 298.2 269.2 C 298.2 272.59999999999997 297.09999999999997 275.3 294.7 277.7 L 277.7 294.7 C 275.3 297.09999999999997 272.59999999999997 298.2 269.2 298.2 C 265.8 298.2 263.09999999999997 297.09999999999997 260.7 294.7 L 224 258 L 187.2 294.8 C 184.79999999999998 297.2 182.1 298.3 178.7 298.3 C 175.29999999999998 298.3 172.6 297.2 170.2 294.8 L 153.2 277.8 C 150.79999999999998 275.40000000000003 149.7 272.7 149.7 269.3 C 149.7 265.90000000000003 150.79999999999998 263.2 153.2 260.8 L 190 224 L 153.2 187.2 C 150.79999999999998 184.79999999999998 149.7 182 149.7 178.7 C 149.7 175.29999999999998 150.79999999999998 172.5 153.2 170.2 L 170.2 153.2 C 172.6 150.79999999999998 175.29999999999998 149.7 178.7 149.7 C 182.1 149.7 184.79999999999998 150.79999999999998 187.2 153.2 L 224 190 L 260.8 153.2 C 263.2 150.79999999999998 265.90000000000003 149.7 269.3 149.7 C 272.7 149.7 275.40000000000003 150.79999999999998 277.8 153.2 L 294.8 170.2 C 297.2 172.5 298.3 175.29999999999998 298.3 178.7 C 298.3 182 297.2 184.79999999999998 294.8 187.2 L 258 224 L 294.8 260.8 C 297.1 263.1 298.2 265.9 298.2 269.2 Z"/></g></g></g></g><g transform="matrix(1,0,0,1,-13.5546875,61)"><text fill="#000000" stroke="none" font-family="Open Sans" font-size="12pt" font-style="normal" font-weight="normal" text-decoration="normal" x="41.5546875" y="12" text-anchor="middle" dominant-baseline="alphabetic">Approved ?</text></g></g><g id="_35911B5E-D472-4292-8488-FA07E880B0CA" bpmn2nodeid="_35911B5E-D472-4292-8488-FA07E880B0CA" transform="matrix(1,0,0,1,1118.2599487304688,20)"><g><path fill="none" stroke="none"/></g><g transform="matrix(0.125,0,0,0.125,0,0)"><g transform="matrix(1,0,0,1,0,0)"><path fill="#fce7e7" stroke="none" id="_35911B5E-D472-4292-8488-FA07E880B0CA?shapeType=BACKGROUND" paint-order="stroke fill markers" d=" M 0 0 M 444 224 C 444 263.9 434.2 300.8 414.4 334.5 C 394.7 368.2 368 394.9 334.4 414.5 C 300.79999999999995 434.1 263.9 444 224 444 C 184.10000000000002 444 147.2 434.2 113.5 414.4 C 79.8 394.7 53.1 368 33.5 334.4 C 13.899999999999999 300.79999999999995 4 263.9 4 224 C 4 184.10000000000002 13.8 147.2 33.6 113.5 C 53.400000000000006 79.80000000000001 80.1 53.1 113.6 33.5 C 147.1 13.899999999999999 184.1 4 224 4 C 263.9 4 300.8 13.8 334.5 33.6 C 368.2 53.400000000000006 394.9 80.1 414.5 113.6 C 434.1 147.1 444 184.1 444 224 Z"/></g><g><g transform="matrix(1,0,0,1,0,0)"><g transform="matrix(1,0,0,1,0,0)"><path fill="#a30000" stroke="none" id="_35911B5E-D472-4292-8488-FA07E880B0CA?shapeType=BORDER&amp;renderType=FILL" paint-order="stroke fill markers" d=" M 0 0 M 224 0 C 100.3 0 0 100.3 0 224 C 0 347.7 100.3 448 224 448 C 347.7 448 448 347.7 448 224 C 448 100.30000000000001 347.7 0 224 0 Z M 0 0 M 224 400 C 126.8 400 48 321.2 48 224 C 48 126.80000000000001 126.8 48 224 48 C 321.2 48 400 126.8 400 224 C 400 321.2 321.2 400 224 400 Z"/></g></g></g></g><g transform="matrix(1,0,0,1,-51.6484375,61)"><text fill="#000000" stroke="none" font-family="Open Sans" font-size="12pt" font-style="normal" font-weight="normal" text-decoration="normal" x="79.6484375" y="12" text-anchor="middle" dominant-baseline="alphabetic">Completed - Rejected</text></g></g><g id="_440A66CF-26C3-4461-BB48-C7B1703DCFFC" bpmn2nodeid="_440A66CF-26C3-4461-BB48-C7B1703DCFFC" transform="matrix(1,0,0,1,300.79998779296875,20.599998474121094)"><g><path fill="none" stroke="none"/></g><g transform="matrix(0.125,0,0,0.125,0,0)"><g transform="matrix(1,0,0,1,0,0)"><path fill="#fce7e7" stroke="none" id="_440A66CF-26C3-4461-BB48-C7B1703DCFFC?shapeType=BACKGROUND" paint-order="stroke fill markers" d=" M 0 0 M 444 224 C 444 263.9 434.2 300.8 414.4 334.5 C 394.7 368.2 368 394.9 334.4 414.5 C 300.79999999999995 434.1 263.9 444 224 444 C 184.10000000000002 444 147.2 434.2 113.5 414.4 C 79.8 394.7 53.1 368 33.5 334.4 C 13.899999999999999 300.79999999999995 4 263.9 4 224 C 4 184.10000000000002 13.8 147.2 33.6 113.5 C 53.400000000000006 79.80000000000001 80.1 53.1 113.6 33.5 C 147.1 13.899999999999999 184.1 4 224 4 C 263.9 4 300.8 13.8 334.5 33.6 C 368.2 53.400000000000006 394.9 80.1 414.5 113.6 C 434.1 147.1 444 184.1 444 224 Z"/></g><g><g transform="matrix(1,0,0,1,0,0)"><g transform="matrix(1,0,0,1,0,0)"><path fill="#a30000" stroke="none" id="_440A66CF-26C3-4461-BB48-C7B1703DCFFC?shapeType=BORDER&amp;renderType=FILL" paint-order="stroke fill markers" d=" M 0 0 M 224 0 C 100.3 0 0 100.3 0 224 C 0 347.7 100.3 448 224 448 C 347.7 448 448 347.7 448 224 C 448 100.30000000000001 347.7 0 224 0 Z M 0 0 M 224 400 C 126.8 400 48 321.2 48 224 C 48 126.80000000000001 126.8 48 224 48 C 321.2 48 400 126.8 400 224 C 400 321.2 321.2 400 224 400 Z"/></g></g></g><g><g transform="matrix(1,0,0,1,0,0)"><g transform="matrix(1,0,0,1,0,0)"><path fill="#a30000" stroke="none" id="_440A66CF-26C3-4461-BB48-C7B1703DCFFCundefined" paint-order="stroke fill markers" d=" M 0 0 M 320.2 220.7 C 320.2 238.1 315.9 254.2 307.3 268.9 C 298.7 283.59999999999997 287.1 295.29999999999995 272.40000000000003 303.79999999999995 C 257.70000000000005 312.4 241.60000000000002 316.69999999999993 224.20000000000005 316.69999999999993 C 206.80000000000007 316.69999999999993 190.70000000000005 312.3999999999999 176.00000000000006 303.79999999999995 C 161.30000000000007 295.19999999999993 149.70000000000005 283.59999999999997 141.10000000000005 268.9 C 132.50000000000006 254.2 128.30000000000004 238.09999999999997 128.30000000000004 220.7 C 128.30000000000004 203.3 132.60000000000005 187.2 141.20000000000005 172.5 C 149.80000000000004 157.8 161.40000000000003 146.1 176.10000000000005 137.5 C 190.80000000000004 128.9 206.90000000000006 124.7 224.30000000000007 124.7 C 241.70000000000007 124.7 257.80000000000007 129 272.50000000000006 137.6 C 287.20000000000005 146.2 298.90000000000003 157.9 307.40000000000003 172.5 C 316 187.2 320.2 203.3 320.2 220.7 Z"/></g></g></g></g><g transform="matrix(1,0,0,1,-39.15234375,61)"><text fill="#000000" stroke="none" font-family="Open Sans" font-size="12pt" font-style="normal" font-weight="normal" text-decoration="normal" x="67.15234375" y="12" text-anchor="middle" dominant-baseline="alphabetic">Error: Incomplete </text><text fill="#000000" stroke="none" font-family="Open Sans" font-size="12pt" font-style="normal" font-weight="normal" text-decoration="normal" x="67.15234375" y="27" text-anchor="middle" dominant-baseline="alphabetic">  Mandatory info   </text></g></g><g id="_9F3636CC-2E44-49AE-B442-22BD23B4B1E1" bpmn2nodeid="_9F3636CC-2E44-49AE-B442-22BD23B4B1E1" transform="matrix(1,0,0,1,300.79998779296875,147.36000061035156)"><g><path fill="none" stroke="none"/></g><g transform="matrix(0.125,0,0,0.125,0,0)"><g transform="matrix(1,0,0,1,0,0)"><path fill="#fef4ea" stroke="none" id="_9F3636CC-2E44-49AE-B442-22BD23B4B1E1?shapeType=BACKGROUND" paint-order="stroke fill markers" d=" M 0 0 M 224.4 4.3 C 216.4 4.3 208.4 7.3 202.3 13.399999999999999 L 13.5 202.2 C 1.3000000000000007 214.39999999999998 1.3000000000000007 234.2 13.5 246.39999999999998 L 202.2 435.09999999999997 C 208.29999999999998 441.2 216.39999999999998 444.2 224.29999999999998 444.2 C 232.2 444.2 240.29999999999998 441.2 246.39999999999998 435.09999999999997 L 435.09999999999997 246.39999999999998 C 447.29999999999995 234.2 447.29999999999995 214.39999999999998 435.09999999999997 202.2 L 246.5 13.4 C 240.4 7.3 232.4 4.3 224.4 4.3 L 224.4 4.3 Z"/></g><g><g transform="matrix(1,0,0,1,0,0)"><g transform="matrix(1,0,0,1,0,0)"><path fill="rgb(236,122,8)" stroke="none" id="_9F3636CC-2E44-49AE-B442-22BD23B4B1E1?shapeType=BORDER&amp;renderType=FILL" paint-order="stroke fill markers" d=" M 0 0 M 20.8 212.7 L 213.3 20.2 C 219.60000000000002 13.899999999999999 229.70000000000002 13.899999999999999 235.9 20.2 L 428.4 212.7 C 434.7 219 434.7 229.1 428.4 235.29999999999998 L 235.9 427.8 C 229.6 434.1 219.5 434.1 213.3 427.8 L 20.8 235.3 C 14.5 229.1 14.5 218.9 20.8 212.7 L 20.8 212.7 Z M 0 0 M 0 224 C 0 232.1 3.1 240.3 9.3 246.5 L 201.5 438.7 C 213.9 451.09999999999997 234.1 451.09999999999997 246.5 438.7 L 438.7 246.5 C 444.9 240.3 448 232.1 448 224 C 448 215.9 444.9 207.7 438.7 201.5 L 246.5 9.3 C 234.1 -3.0999999999999996 213.9 -3.0999999999999996 201.5 9.3 L 9.3 201.5 C 3.1 207.7 0 215.9 0 224 L 0 224 Z"/></g></g></g><g><g transform="matrix(1,0,0,1,0,0)"><g transform="matrix(1,0,0,1,0,0)"><path fill="#ec7a08" stroke="none" id="_9F3636CC-2E44-49AE-B442-22BD23B4B1E1undefined" paint-order="stroke fill markers" d=" M 0 0 M 298.2 269.2 C 298.2 272.59999999999997 297.09999999999997 275.3 294.7 277.7 L 277.7 294.7 C 275.3 297.09999999999997 272.59999999999997 298.2 269.2 298.2 C 265.8 298.2 263.09999999999997 297.09999999999997 260.7 294.7 L 224 258 L 187.2 294.8 C 184.79999999999998 297.2 182.1 298.3 178.7 298.3 C 175.29999999999998 298.3 172.6 297.2 170.2 294.8 L 153.2 277.8 C 150.79999999999998 275.40000000000003 149.7 272.7 149.7 269.3 C 149.7 265.90000000000003 150.79999999999998 263.2 153.2 260.8 L 190 224 L 153.2 187.2 C 150.79999999999998 184.79999999999998 149.7 182 149.7 178.7 C 149.7 175.29999999999998 150.79999999999998 172.5 153.2 170.2 L 170.2 153.2 C 172.6 150.79999999999998 175.29999999999998 149.7 178.7 149.7 C 182.1 149.7 184.79999999999998 150.79999999999998 187.2 153.2 L 224 190 L 260.8 153.2 C 263.2 150.79999999999998 265.90000000000003 149.7 269.3 149.7 C 272.7 149.7 275.40000000000003 150.79999999999998 277.8 153.2 L 294.8 170.2 C 297.2 172.5 298.3 175.29999999999998 298.3 178.7 C 298.3 182 297.2 184.79999999999998 294.8 187.2 L 258 224 L 294.8 260.8 C 297.1 263.1 298.2 265.9 298.2 269.2 Z"/></g></g></g></g><g transform="matrix(1,0,0,1,-36.94140625,61)"><text fill="#000000" stroke="none" font-family="Open Sans" font-size="12pt" font-style="normal" font-weight="normal" text-decoration="normal" x="64.94140625" y="12" text-anchor="middle" dominant-baseline="alphabetic">All Required info?</text></g></g><g id="_A6B5D69C-176A-443F-8A01-60408876B521" bpmn2nodeid="_A6B5D69C-176A-443F-8A01-60408876B521" transform="matrix(1,0,0,1,1288.7999877929688,147)"><g><path fill="none" stroke="none"/></g><g transform="matrix(0.125,0,0,0.125,0,0)"><g transform="matrix(1,0,0,1,0,0)"><path fill="#fce7e7" stroke="none" id="_A6B5D69C-176A-443F-8A01-60408876B521?shapeType=BACKGROUND" paint-order="stroke fill markers" d=" M 0 0 M 444 224 C 444 263.9 434.2 300.8 414.4 334.5 C 394.7 368.2 368 394.9 334.4 414.5 C 300.79999999999995 434.1 263.9 444 224 444 C 184.10000000000002 444 147.2 434.2 113.5 414.4 C 79.8 394.7 53.1 368 33.5 334.4 C 13.899999999999999 300.79999999999995 4 263.9 4 224 C 4 184.10000000000002 13.8 147.2 33.6 113.5 C 53.400000000000006 79.80000000000001 80.1 53.1 113.6 33.5 C 147.1 13.899999999999999 184.1 4 224 4 C 263.9 4 300.8 13.8 334.5 33.6 C 368.2 53.400000000000006 394.9 80.1 414.5 113.6 C 434.1 147.1 444 184.1 444 224 Z"/></g><g><g transform="matrix(1,0,0,1,0,0)"><g transform="matrix(1,0,0,1,0,0)"><path fill="#a30000" stroke="none" id="_A6B5D69C-176A-443F-8A01-60408876B521?shapeType=BORDER&amp;renderType=FILL" paint-order="stroke fill markers" d=" M 0 0 M 224 0 C 100.3 0 0 100.3 0 224 C 0 347.7 100.3 448 224 448 C 347.7 448 448 347.7 448 224 C 448 100.30000000000001 347.7 0 224 0 Z M 0 0 M 224 400 C 126.8 400 48 321.2 48 224 C 48 126.80000000000001 126.8 48 224 48 C 321.2 48 400 126.8 400 224 C 400 321.2 321.2 400 224 400 Z"/></g></g></g></g><g transform="matrix(1,0,0,1,-55.72265625,61)"><text fill="#000000" stroke="none" font-family="Open Sans" font-size="12pt" font-style="normal" font-weight="normal" text-decoration="normal" x="83.72265625" y="12" text-anchor="middle" dominant-baseline="alphabetic">Completed - Approved</text></g></g><g id="_055AE30A-A2FA-40F6-96DB-BD9A0FDD5AC8" bpmn2nodeid="_055AE30A-A2FA-40F6-96DB-BD9A0FDD5AC8" transform="matrix(1,0,0,1,514.260009765625,147)"><g><path fill="none" stroke="none"/></g><g transform="matrix(0.125,0,0,0.125,0,0)"><g transform="matrix(1,0,0,1,0,0)"><path fill="#fef4ea" stroke="none" id="_055AE30A-A2FA-40F6-96DB-BD9A0FDD5AC8?shapeType=BACKGROUND" paint-order="stroke fill markers" d=" M 0 0 M 224.4 4.3 C 216.4 4.3 208.4 7.3 202.3 13.399999999999999 L 13.5 202.2 C 1.3000000000000007 214.39999999999998 1.3000000000000007 234.2 13.5 246.39999999999998 L 202.2 435.09999999999997 C 208.29999999999998 441.2 216.39999999999998 444.2 224.29999999999998 444.2 C 232.2 444.2 240.29999999999998 441.2 246.39999999999998 435.09999999999997 L 435.09999999999997 246.39999999999998 C 447.29999999999995 234.2 447.29999999999995 214.39999999999998 435.09999999999997 202.2 L 246.5 13.4 C 240.4 7.3 232.4 4.3 224.4 4.3 L 224.4 4.3 Z"/></g><g><g transform="matrix(1,0,0,1,0,0)"><g transform="matrix(1,0,0,1,0,0)"><path fill="#ec7a08" stroke="none" id="_055AE30A-A2FA-40F6-96DB-BD9A0FDD5AC8?shapeType=BORDER&amp;renderType=FILL" paint-order="stroke fill markers" d=" M 0 0 M 20.8 212.7 L 213.3 20.2 C 219.60000000000002 13.899999999999999 229.70000000000002 13.899999999999999 235.9 20.2 L 428.4 212.7 C 434.7 219 434.7 229.1 428.4 235.29999999999998 L 235.9 427.8 C 229.6 434.1 219.5 434.1 213.3 427.8 L 20.8 235.3 C 14.5 229.1 14.5 218.9 20.8 212.7 L 20.8 212.7 Z M 0 0 M 0 224 C 0 232.1 3.1 240.3 9.3 246.5 L 201.5 438.7 C 213.9 451.09999999999997 234.1 451.09999999999997 246.5 438.7 L 438.7 246.5 C 444.9 240.3 448 232.1 448 224 C 448 215.9 444.9 207.7 438.7 201.5 L 246.5 9.3 C 234.1 -3.0999999999999996 213.9 -3.0999999999999996 201.5 9.3 L 9.3 201.5 C 3.1 207.7 0 215.9 0 224 L 0 224 Z"/></g></g></g><g><g transform="matrix(1,0,0,1,0,0)"><g transform="matrix(1,0,0,1,0,0)"><path fill="#ec7a08" stroke="none" id="_055AE30A-A2FA-40F6-96DB-BD9A0FDD5AC8undefined" paint-order="stroke fill markers" d=" M 0 0 M 298.2 269.2 C 298.2 272.59999999999997 297.09999999999997 275.3 294.7 277.7 L 277.7 294.7 C 275.3 297.09999999999997 272.59999999999997 298.2 269.2 298.2 C 265.8 298.2 263.09999999999997 297.09999999999997 260.7 294.7 L 224 258 L 187.2 294.8 C 184.79999999999998 297.2 182.1 298.3 178.7 298.3 C 175.29999999999998 298.3 172.6 297.2 170.2 294.8 L 153.2 277.8 C 150.79999999999998 275.40000000000003 149.7 272.7 149.7 269.3 C 149.7 265.90000000000003 150.79999999999998 263.2 153.2 260.8 L 190 224 L 153.2 187.2 C 150.79999999999998 184.79999999999998 149.7 182 149.7 178.7 C 149.7 175.29999999999998 150.79999999999998 172.5 153.2 170.2 L 170.2 153.2 C 172.6 150.79999999999998 175.29999999999998 149.7 178.7 149.7 C 182.1 149.7 184.79999999999998 150.79999999999998 187.2 153.2 L 224 190 L 260.8 153.2 C 263.2 150.79999999999998 265.90000000000003 149.7 269.3 149.7 C 272.7 149.7 275.40000000000003 150.79999999999998 277.8 153.2 L 294.8 170.2 C 297.2 172.5 298.3 175.29999999999998 298.3 178.7 C 298.3 182 297.2 184.79999999999998 294.8 187.2 L 258 224 L 294.8 260.8 C 297.1 263.1 298.2 265.9 298.2 269.2 Z"/></g></g></g></g><g transform="matrix(1,0,0,1,-52.98046875,61)"><text fill="#000000" stroke="none" font-family="Open Sans" font-size="12pt" font-style="normal" font-weight="normal" text-decoration="normal" x="80.98046875" y="12" text-anchor="middle" dominant-baseline="alphabetic">Which Approval Flow?</text></g></g></g><g id="_789EE82C-20FF-4D5B-9814-20700D1FAE0F" bpmn2nodeid="_789EE82C-20FF-4D5B-9814-20700D1FAE0F" transform="matrix(1,0,0,1,289.68499755859375,704)"><g><path fill="none" stroke="none"/></g><g transform="matrix(1,0,0,1,0,0)"><path fill="#f2f2f2" stroke="none" id="_789EE82C-20FF-4D5B-9814-20700D1FAE0F?shapeType=BACKGROUND" paint-order="stroke fill markers" d=" M 0 0 L 1131.030029296875 0 L 1131.030029296875 302.68994140625 L 0 302.68994140625 L 0 0 Z Z"/></g><g transform="matrix(1,0,0,1,0,0)"><path fill="none" stroke="#000000" id="_789EE82C-20FF-4D5B-9814-20700D1FAE0F?shapeType=BORDER&amp;renderType=STROKE" paint-order="fill stroke markers" d=" M 0 0 L 1131.030029296875 0 L 1131.030029296875 302.68994140625 L 0 302.68994140625 L 0 0 Z Z" stroke-miterlimit="10" stroke-width="0.5" stroke-dasharray=""/></g><g transform="matrix(-1.8369701987210297e-16,-1,1,-1.8369701987210297e-16,0,212.958251953125)"><text fill="#000000" stroke="none" font-family="Open Sans" font-size="12pt" font-style="normal" font-weight="normal" text-decoration="normal" x="61.61328125" y="12" text-anchor="middle" dominant-baseline="alphabetic">Branch Manager</text></g><g id="_A668649E-48ED-44BF-BC78-42A135363312" bpmn2nodeid="_A668649E-48ED-44BF-BC78-42A135363312" transform="matrix(1,0,0,1,757.3150024414062,235)"><g><path fill="none" stroke="none"/></g><g transform="matrix(0.125,0,0,0.125,0,0)"><g transform="matrix(1,0,0,1,0,0)"><path fill="#fce7e7" stroke="none" id="_A668649E-48ED-44BF-BC78-42A135363312?shapeType=BACKGROUND" paint-order="stroke fill markers" d=" M 0 0 M 444 224 C 444 263.9 434.2 300.8 414.4 334.5 C 394.7 368.2 368 394.9 334.4 414.5 C 300.79999999999995 434.1 263.9 444 224 444 C 184.10000000000002 444 147.2 434.2 113.5 414.4 C 79.8 394.7 53.1 368 33.5 334.4 C 13.899999999999999 300.79999999999995 4 263.9 4 224 C 4 184.10000000000002 13.8 147.2 33.6 113.5 C 53.400000000000006 79.80000000000001 80.1 53.1 113.6 33.5 C 147.1 13.899999999999999 184.1 4 224 4 C 263.9 4 300.8 13.8 334.5 33.6 C 368.2 53.400000000000006 394.9 80.1 414.5 113.6 C 434.1 147.1 444 184.1 444 224 Z"/></g><g><g transform="matrix(1,0,0,1,0,0)"><g transform="matrix(1,0,0,1,0,0)"><path fill="#a30000" stroke="none" id="_A668649E-48ED-44BF-BC78-42A135363312?shapeType=BORDER&amp;renderType=FILL" paint-order="stroke fill markers" d=" M 0 0 M 224 0 C 100.3 0 0 100.3 0 224 C 0 347.7 100.3 448 224 448 C 347.7 448 448 347.7 448 224 C 448 100.30000000000001 347.7 0 224 0 Z M 0 0 M 224 400 C 126.8 400 48 321.2 48 224 C 48 126.80000000000001 126.8 48 224 48 C 321.2 48 400 126.8 400 224 C 400 321.2 321.2 400 224 400 Z"/></g></g></g><g><g transform="matrix(1,0,0,1,0,0)"><g transform="matrix(1,0,0,1,0,0)"><path fill="#a30000" stroke="none" id="_A668649E-48ED-44BF-BC78-42A135363312undefined" paint-order="stroke fill markers" d=" M 0 0 M 320.2 220.7 C 320.2 238.1 315.9 254.2 307.3 268.9 C 298.7 283.59999999999997 287.1 295.29999999999995 272.40000000000003 303.79999999999995 C 257.70000000000005 312.4 241.60000000000002 316.69999999999993 224.20000000000005 316.69999999999993 C 206.80000000000007 316.69999999999993 190.70000000000005 312.3999999999999 176.00000000000006 303.79999999999995 C 161.30000000000007 295.19999999999993 149.70000000000005 283.59999999999997 141.10000000000005 268.9 C 132.50000000000006 254.2 128.30000000000004 238.09999999999997 128.30000000000004 220.7 C 128.30000000000004 203.3 132.60000000000005 187.2 141.20000000000005 172.5 C 149.80000000000004 157.8 161.40000000000003 146.1 176.10000000000005 137.5 C 190.80000000000004 128.9 206.90000000000006 124.7 224.30000000000007 124.7 C 241.70000000000007 124.7 257.80000000000007 129 272.50000000000006 137.6 C 287.20000000000005 146.2 298.90000000000003 157.9 307.40000000000003 172.5 C 316 187.2 320.2 203.3 320.2 220.7 Z"/></g></g></g></g><g transform="matrix(1,0,0,1,28,61)"/></g><g id="_E3CD5C54-5C80-44DF-A7B5-CB69F4FCFBA6" bpmn2nodeid="_E3CD5C54-5C80-44DF-A7B5-CB69F4FCFBA6" transform="matrix(1,0,0,1,757.3150024414062,114)"><g><path fill="none" stroke="none"/></g><g transform="matrix(0.125,0,0,0.125,0,0)"><g transform="matrix(1,0,0,1,0,0)"><path fill="#fef4ea" stroke="none" id="_E3CD5C54-5C80-44DF-A7B5-CB69F4FCFBA6?shapeType=BACKGROUND" paint-order="stroke fill markers" d=" M 0 0 M 224.4 4.3 C 216.4 4.3 208.4 7.3 202.3 13.399999999999999 L 13.5 202.2 C 1.3000000000000007 214.39999999999998 1.3000000000000007 234.2 13.5 246.39999999999998 L 202.2 435.09999999999997 C 208.29999999999998 441.2 216.39999999999998 444.2 224.29999999999998 444.2 C 232.2 444.2 240.29999999999998 441.2 246.39999999999998 435.09999999999997 L 435.09999999999997 246.39999999999998 C 447.29999999999995 234.2 447.29999999999995 214.39999999999998 435.09999999999997 202.2 L 246.5 13.4 C 240.4 7.3 232.4 4.3 224.4 4.3 L 224.4 4.3 Z"/></g><g><g transform="matrix(1,0,0,1,0,0)"><g transform="matrix(1,0,0,1,0,0)"><path fill="rgb(236,122,8)" stroke="none" id="_E3CD5C54-5C80-44DF-A7B5-CB69F4FCFBA6?shapeType=BORDER&amp;renderType=FILL" paint-order="stroke fill markers" d=" M 0 0 M 20.8 212.7 L 213.3 20.2 C 219.60000000000002 13.899999999999999 229.70000000000002 13.899999999999999 235.9 20.2 L 428.4 212.7 C 434.7 219 434.7 229.1 428.4 235.29999999999998 L 235.9 427.8 C 229.6 434.1 219.5 434.1 213.3 427.8 L 20.8 235.3 C 14.5 229.1 14.5 218.9 20.8 212.7 L 20.8 212.7 Z M 0 0 M 0 224 C 0 232.1 3.1 240.3 9.3 246.5 L 201.5 438.7 C 213.9 451.09999999999997 234.1 451.09999999999997 246.5 438.7 L 438.7 246.5 C 444.9 240.3 448 232.1 448 224 C 448 215.9 444.9 207.7 438.7 201.5 L 246.5 9.3 C 234.1 -3.0999999999999996 213.9 -3.0999999999999996 201.5 9.3 L 9.3 201.5 C 3.1 207.7 0 215.9 0 224 L 0 224 Z"/></g></g></g><g><g transform="matrix(1,0,0,1,0,0)"><g transform="matrix(1,0,0,1,0,0)"><path fill="#ec7a08" stroke="none" id="_E3CD5C54-5C80-44DF-A7B5-CB69F4FCFBA6undefined" paint-order="stroke fill markers" d=" M 0 0 M 298.2 269.2 C 298.2 272.59999999999997 297.09999999999997 275.3 294.7 277.7 L 277.7 294.7 C 275.3 297.09999999999997 272.59999999999997 298.2 269.2 298.2 C 265.8 298.2 263.09999999999997 297.09999999999997 260.7 294.7 L 224 258 L 187.2 294.8 C 184.79999999999998 297.2 182.1 298.3 178.7 298.3 C 175.29999999999998 298.3 172.6 297.2 170.2 294.8 L 153.2 277.8 C 150.79999999999998 275.40000000000003 149.7 272.7 149.7 269.3 C 149.7 265.90000000000003 150.79999999999998 263.2 153.2 260.8 L 190 224 L 153.2 187.2 C 150.79999999999998 184.79999999999998 149.7 182 149.7 178.7 C 149.7 175.29999999999998 150.79999999999998 172.5 153.2 170.2 L 170.2 153.2 C 172.6 150.79999999999998 175.29999999999998 149.7 178.7 149.7 C 182.1 149.7 184.79999999999998 150.79999999999998 187.2 153.2 L 224 190 L 260.8 153.2 C 263.2 150.79999999999998 265.90000000000003 149.7 269.3 149.7 C 272.7 149.7 275.40000000000003 150.79999999999998 277.8 153.2 L 294.8 170.2 C 297.2 172.5 298.3 175.29999999999998 298.3 178.7 C 298.3 182 297.2 184.79999999999998 294.8 187.2 L 258 224 L 294.8 260.8 C 297.1 263.1 298.2 265.9 298.2 269.2 Z"/></g></g></g></g><g transform="matrix(1,0,0,1,-11.4765625,61)"><text fill="#000000" stroke="none" font-family="Open Sans" font-size="12pt" font-style="normal" font-weight="normal" text-decoration="normal" x="39.4765625" y="12" text-anchor="middle" dominant-baseline="alphabetic">Approved?</text></g></g><g id="_B7200A4B-B56D-465F-8F0C-400AEA344538" bpmn2nodeid="_B7200A4B-B56D-465F-8F0C-400AEA344538" transform="matrix(1,0,0,1,1033.3150024414062,114)"><g><path fill="none" stroke="none"/></g><g transform="matrix(0.125,0,0,0.125,0,0)"><g transform="matrix(1,0,0,1,0,0)"><path fill="#fce7e7" stroke="none" id="_B7200A4B-B56D-465F-8F0C-400AEA344538?shapeType=BACKGROUND" paint-order="stroke fill markers" d=" M 0 0 M 444 224 C 444 263.9 434.2 300.8 414.4 334.5 C 394.7 368.2 368 394.9 334.4 414.5 C 300.79999999999995 434.1 263.9 444 224 444 C 184.10000000000002 444 147.2 434.2 113.5 414.4 C 79.8 394.7 53.1 368 33.5 334.4 C 13.899999999999999 300.79999999999995 4 263.9 4 224 C 4 184.10000000000002 13.8 147.2 33.6 113.5 C 53.400000000000006 79.80000000000001 80.1 53.1 113.6 33.5 C 147.1 13.899999999999999 184.1 4 224 4 C 263.9 4 300.8 13.8 334.5 33.6 C 368.2 53.400000000000006 394.9 80.1 414.5 113.6 C 434.1 147.1 444 184.1 444 224 Z"/></g><g><g transform="matrix(1,0,0,1,0,0)"><g transform="matrix(1,0,0,1,0,0)"><path fill="rgb(163,0,0)" stroke="none" id="_B7200A4B-B56D-465F-8F0C-400AEA344538?shapeType=BORDER&amp;renderType=FILL" paint-order="stroke fill markers" d=" M 0 0 M 224 0 C 100.3 0 0 100.3 0 224 C 0 347.7 100.3 448 224 448 C 347.7 448 448 347.7 448 224 C 448 100.30000000000001 347.7 0 224 0 Z M 0 0 M 224 400 C 126.8 400 48 321.2 48 224 C 48 126.80000000000001 126.8 48 224 48 C 321.2 48 400 126.8 400 224 C 400 321.2 321.2 400 224 400 Z"/></g></g></g><g><g transform="matrix(1,0,0,1,0,0)"><g transform="matrix(1,0,0,1,0,0)"><path fill="#a30000" stroke="none" id="_B7200A4B-B56D-465F-8F0C-400AEA344538undefined" paint-order="stroke fill markers" d=" M 0 0 M 314.6 126.5 C 316.20000000000005 124.9 317.5 124.4 318.6 124.9 C 319.70000000000005 125.4 320.20000000000005 126.80000000000001 320.20000000000005 128.9 L 320.20000000000005 312.5 C 320.20000000000005 314.6 319.70000000000005 316 318.6 316.5 C 317.6 317 316.20000000000005 316.5 314.6 314.9 L 226.3 226.29999999999998 C 225.60000000000002 225.49999999999997 225.10000000000002 224.79999999999998 224.70000000000002 223.89999999999998 L 224.70000000000002 312.5 C 224.70000000000002 314.6 224.10000000000002 316 223.10000000000002 316.5 C 222.00000000000003 317 220.70000000000002 316.4 219.10000000000002 314.9 L 130.60000000000002 226.29999999999998 C 129.00000000000003 224.7 128.20000000000002 222.89999999999998 128.20000000000002 220.7 C 128.20000000000002 218.5 129.00000000000003 216.6 130.60000000000002 215.1 L 219.00000000000003 126.5 C 220.60000000000002 124.9 221.90000000000003 124.4 223.00000000000003 124.9 C 224.10000000000002 125.4 224.60000000000002 126.80000000000001 224.60000000000002 128.9 L 224.60000000000002 217.5 C 225.00000000000003 216.6 225.50000000000003 215.8 226.20000000000002 215.1 L 314.6 126.5 Z"/></g></g></g></g><g transform="matrix(1,0,0,1,28,61)"/></g><g id="_1FB42E76-33FE-439D-A52A-AFFBBD53597C" bpmn2nodeid="_1FB42E76-33FE-439D-A52A-AFFBBD53597C" transform="matrix(1,0,0,1,465.31500244140625,91)"><g><path fill="none" stroke="none"/></g><g transform="matrix(1,0,0,1,0,0)"><path fill="#ffffff" stroke="none" id="_1FB42E76-33FE-439D-A52A-AFFBBD53597C?shapeType=BACKGROUND" paint-order="stroke fill markers" d=" M 2 0 L 152 0 L 152 0 A 2 2 0 0 1 154 2 L 154 100 L 154 100 A 2 2 0 0 1 152 102 L 2 102 L 2 102 A 2 2 0 0 1 0 100 L 0 2 L 0 2.0000000000000004 A 2 2 0 0 1 1.9999999999999996 0 Z"/></g><g transform="matrix(1,0,0,1,0,0)"><path fill="none" stroke="rgb(0,0,0)" id="_1FB42E76-33FE-439D-A52A-AFFBBD53597C?shapeType=BORDER&amp;renderType=STROKE" paint-order="fill stroke markers" d=" M 2 0 L 152 0 L 152 0 A 2 2 0 0 1 154 2 L 154 100 L 154 100 A 2 2 0 0 1 152 102 L 2 102 L 2 102 A 2 2 0 0 1 0 100 L 0 2 L 0 2.0000000000000004 A 2 2 0 0 1 1.9999999999999996 0 Z" stroke-miterlimit="10" stroke-width="1.5" stroke-dasharray=""/></g><g><g transform="matrix(0.06,0,0,0.06,9.4,9.4)"><g transform="matrix(1,0,0,1,0,0)"><path fill="#393f44" stroke="none" id="_1FB42E76-33FE-439D-A52A-AFFBBD53597Cundefined" paint-order="stroke fill markers" d=" M 0 0 M 16 445.2101 C 16 440.86867 18.784312 431.12906000000004 22.001325 424.21728 C 35.767643 394.6402 77.282944 359.28049 129 333.08362 C 144.51625 325.22398 157.34689 319.96394 167.80739 317.17416 C 171.93153 316.07426 175.72913 314.41389999999996 176.5251 313.36265 C 178.89361 310.23449999999997 180.91404 302.90781 181.72673 294.5 L 182.5 286.5 L 178.50715 283.45457 C 166.30327 274.14645 154.2837 251.67767 148.03953 226.5 C 145.61086 216.70715 145.05603000000002 215.46246 142.98364 215.1579 C 141.70332000000002 214.96974 138.08302 212.24302 134.93852 209.09852 C 123.23314 197.39314000000002 116.89146000000001 177.37556 121.43982000000001 166.48978 C 123.00204000000001 162.75088 128.15457 159.00970999999998 131.75 159.00374 C 134.44781 158.99974 134.47062 158.60296 132.91375 138.78796 C 130.92658 113.4962 134.27903 92.26542699999999 143.13217 74.075676 C 152.23162 55.379835 167.56889 42.88208 189.04934 36.659507000000005 C 210.20334 30.531504000000005 237.79666 30.531504000000005 258.95065999999997 36.659507000000005 C 300.04166 48.562968000000005 318.95842 83.80634 314.95504999999997 141 C 314.31982999999997 150.075 313.62402 157.78816 313.4088 158.14035 C 313.19359 158.49254000000002 314.57532 159.07295000000002 316.47931 159.43014000000002 C 328.92867 161.76565000000002 330.98619 177.01772000000003 321.49638 196.62092 C 316.90319 206.10912000000002 309.35724 214.50797 304.81732 215.18517000000003 C 303.02259 215.45289000000002 302.2931 217.14618000000002 299.94277999999997 226.50000000000003 C 296.65948 239.56693 294.47402 245.30522000000002 287.94764 257.99534000000006 C 282.49071999999995 268.60596000000004 273.03466 281.10922000000005 268.10756999999995 284.2288300000001 L 264.87062 286.27832000000006 L 265.51815999999997 292.88916000000006 C 266.34490999999997 301.32961000000006 268.63948999999997 309.8706000000001 270.87735999999995 312.83742000000007 C 272.06735 314.4150200000001 275.00244999999995 315.78963000000005 280.0630699999999 317.13941000000005 C 291.06929999999994 320.0750300000001 303.61700999999994 325.27420000000006 320.99999999999994 334.10171 C 369.81470999999993 358.89104000000003 410.84810999999996 393.75797 425.03216 422.5 C 429.06985999999995 430.68183 432 440.23198 432 445.2101 L 432 448 L 224 448 L 16 448 L 16 445.2101 Z"/></g></g></g><g transform="matrix(1,0,0,1,4.039999999999992,13.680000000000007)"><g transform="matrix(0.04,0,0,0.04,63.36,69.12)"><g transform="matrix(1,0,0,1,0,0)"><path fill="none" stroke="none"/></g><g transform="matrix(1,0,0,1,0,0)"><path fill="none" stroke="none"/></g></g></g><g transform="matrix(1,0,0,1,35,21)"><text fill="#000000" stroke="none" font-family="Open Sans" font-size="12pt" font-style="normal" font-weight="normal" text-decoration="normal" x="52.515625" y="12" text-anchor="middle" dominant-baseline="alphabetic">    Manager     </text><text fill="#000000" stroke="none" font-family="Open Sans" font-size="12pt" font-style="normal" font-weight="normal" text-decoration="normal" x="52.515625" y="27" text-anchor="middle" dominant-baseline="alphabetic">Approve High </text><text fill="#000000" stroke="none" font-family="Open Sans" font-size="12pt" font-style="normal" font-weight="normal" text-decoration="normal" x="52.515625" y="42" text-anchor="middle" dominant-baseline="alphabetic">      Money       </text><text fill="#000000" stroke="none" font-family="Open Sans" font-size="12pt" font-style="normal" font-weight="normal" text-decoration="normal" x="52.515625" y="57" text-anchor="middle" dominant-baseline="alphabetic">  Withdrawal   </text></g></g></g><g id="_6033B7B2-F0D8-4C47-97AF-48D1802555EE" bpmn2nodeid="_6033B7B2-F0D8-4C47-97AF-48D1802555EE" transform="matrix(1,0,0,1,135,634)"><g><path fill="none" stroke="none"/></g><g transform="matrix(0.125,0,0,0.125,0,0)"><g transform="matrix(1,0,0,1,0,0)"><path fill="#e8fae6" stroke="none" id="_6033B7B2-F0D8-4C47-97AF-48D1802555EE?shapeType=BACKGROUND" paint-order="stroke fill markers" d=" M 0 0 M 444 224 C 444 263.9 434.2 300.8 414.4 334.5 C 394.7 368.2 368 394.9 334.4 414.5 C 300.79999999999995 434.1 263.9 444 224 444 C 184.10000000000002 444 147.2 434.2 113.5 414.4 C 79.8 394.7 53.1 368 33.5 334.4 C 13.899999999999999 300.79999999999995 4 263.9 4 224 C 4 184.10000000000002 13.8 147.2 33.6 113.5 C 53.400000000000006 79.80000000000001 80.1 53.1 113.6 33.5 C 147.1 13.899999999999999 184.1 4 224 4 C 263.9 4 300.8 13.8 334.5 33.6 C 368.2 53.400000000000006 394.9 80.1 414.5 113.6 C 434.1 147.1 444 184.1 444 224 Z"/></g><g><g transform="matrix(1,0,0,1,0,0)"><g transform="matrix(1,0,0,1,0,0)"><path fill="#4aa241" stroke="none" id="_6033B7B2-F0D8-4C47-97AF-48D1802555EE?shapeType=BORDER&amp;renderType=FILL" paint-order="stroke fill markers" d=" M 0 0 M 224 0 C 100.3 0 0 100.3 0 224 C 0 347.7 100.3 448 224 448 C 347.7 448 448 347.7 448 224 C 448 100.30000000000001 347.7 0 224 0 Z M 0 0 M 224 432 C 109.1 432 16 338.9 16 224 C 16 109.10000000000002 109.1 16 224 16 C 338.9 16 432 109.1 432 224 C 432 338.9 338.9 432 224 432 Z"/></g></g></g></g><g transform="matrix(1,0,0,1,-65.95703125,61)"><text fill="#000000" stroke="none" font-family="Open Sans" font-size="12pt" font-style="normal" font-weight="normal" text-decoration="normal" x="93.95703125" y="12" text-anchor="middle" dominant-baseline="alphabetic">Initiate Customer Money </text><text fill="#000000" stroke="none" font-family="Open Sans" font-size="12pt" font-style="normal" font-weight="normal" text-decoration="normal" x="93.95703125" y="27" text-anchor="middle" dominant-baseline="alphabetic">     Withdrawal Appro...     </text></g></g><g id="_F4DEFCBA-3DC0-4244-A453-0214FC51BD7F" bpmn2nodeid="_F4DEFCBA-3DC0-4244-A453-0214FC51BD7F" transform="matrix(1,0,0,1,1041,606)"><g><path fill="none" stroke="none"/></g><g transform="matrix(0.125,0,0,0.125,0,0)"><g transform="matrix(1,0,0,1,0,0)"><path fill="#fef4ea" stroke="none" id="_F4DEFCBA-3DC0-4244-A453-0214FC51BD7F?shapeType=BACKGROUND" paint-order="stroke fill markers" d=" M 0 0 M 224.4 4.3 C 216.4 4.3 208.4 7.3 202.3 13.399999999999999 L 13.5 202.2 C 1.3000000000000007 214.39999999999998 1.3000000000000007 234.2 13.5 246.39999999999998 L 202.2 435.09999999999997 C 208.29999999999998 441.2 216.39999999999998 444.2 224.29999999999998 444.2 C 232.2 444.2 240.29999999999998 441.2 246.39999999999998 435.09999999999997 L 435.09999999999997 246.39999999999998 C 447.29999999999995 234.2 447.29999999999995 214.39999999999998 435.09999999999997 202.2 L 246.5 13.4 C 240.4 7.3 232.4 4.3 224.4 4.3 L 224.4 4.3 Z"/></g><g><g transform="matrix(1,0,0,1,0,0)"><g transform="matrix(1,0,0,1,0,0)"><path fill="#ec7a08" stroke="none" id="_F4DEFCBA-3DC0-4244-A453-0214FC51BD7F?shapeType=BORDER&amp;renderType=FILL" paint-order="stroke fill markers" d=" M 0 0 M 20.8 212.7 L 213.3 20.2 C 219.60000000000002 13.899999999999999 229.70000000000002 13.899999999999999 235.9 20.2 L 428.4 212.7 C 434.7 219 434.7 229.1 428.4 235.29999999999998 L 235.9 427.8 C 229.6 434.1 219.5 434.1 213.3 427.8 L 20.8 235.3 C 14.5 229.1 14.5 218.9 20.8 212.7 L 20.8 212.7 Z M 0 0 M 0 224 C 0 232.1 3.1 240.3 9.3 246.5 L 201.5 438.7 C 213.9 451.09999999999997 234.1 451.09999999999997 246.5 438.7 L 438.7 246.5 C 444.9 240.3 448 232.1 448 224 C 448 215.9 444.9 207.7 438.7 201.5 L 246.5 9.3 C 234.1 -3.0999999999999996 213.9 -3.0999999999999996 201.5 9.3 L 9.3 201.5 C 3.1 207.7 0 215.9 0 224 L 0 224 Z"/></g></g></g><g><g transform="matrix(1,0,0,1,0,0)"><g transform="matrix(1,0,0,1,0,0)"><path fill="#ec7a08" stroke="none" id="_F4DEFCBA-3DC0-4244-A453-0214FC51BD7Fundefined" paint-order="stroke fill markers" d=" M 0 0 M 224 127.9 C 249.6 127.9 273.8 137.9 291.9 156 C 310 174.2 320 198.3 320 223.9 C 320 249.5 310 273.6 291.9 291.8 C 273.79999999999995 309.90000000000003 249.7 319.90000000000003 223.99999999999997 319.90000000000003 C 198.29999999999995 319.90000000000003 174.2 309.90000000000003 156.09999999999997 291.8 C 138 273.7 128 249.6 128 223.9 C 128 198.20000000000002 138 174.10000000000002 156.1 156 C 174.2 137.89999999999998 198.4 127.9 224 127.9 M 224 111.9 C 162.1 111.9 112 162 112 223.9 C 112 285.8 162.1 335.9 224 335.9 C 285.9 335.9 336 285.79999999999995 336 223.89999999999998 C 336 162 285.9 111.9 224 111.9 L 224 111.9 Z"/></g></g></g></g><g transform="matrix(1,0,0,1,28,61)"/></g><g id="_BFB882EF-C037-459F-9771-77858C425576" bpmn2nodeid="_BFB882EF-C037-459F-9771-77858C425576" transform="matrix(1,0,0,1,1613,606)"><g><path fill="none" stroke="none"/></g><g transform="matrix(0.125,0,0,0.125,0,0)"><g transform="matrix(1,0,0,1,0,0)"><path fill="#fce7e7" stroke="none" id="_BFB882EF-C037-459F-9771-77858C425576?shapeType=BACKGROUND" paint-order="stroke fill markers" d=" M 0 0 M 444 224 C 444 263.9 434.2 300.8 414.4 334.5 C 394.7 368.2 368 394.9 334.4 414.5 C 300.79999999999995 434.1 263.9 444 224 444 C 184.10000000000002 444 147.2 434.2 113.5 414.4 C 79.8 394.7 53.1 368 33.5 334.4 C 13.899999999999999 300.79999999999995 4 263.9 4 224 C 4 184.10000000000002 13.8 147.2 33.6 113.5 C 53.400000000000006 79.80000000000001 80.1 53.1 113.6 33.5 C 147.1 13.899999999999999 184.1 4 224 4 C 263.9 4 300.8 13.8 334.5 33.6 C 368.2 53.400000000000006 394.9 80.1 414.5 113.6 C 434.1 147.1 444 184.1 444 224 Z"/></g><g><g transform="matrix(1,0,0,1,0,0)"><g transform="matrix(1,0,0,1,0,0)"><path fill="#a30000" stroke="none" id="_BFB882EF-C037-459F-9771-77858C425576?shapeType=BORDER&amp;renderType=FILL" paint-order="stroke fill markers" d=" M 0 0 M 224 0 C 100.3 0 0 100.3 0 224 C 0 347.7 100.3 448 224 448 C 347.7 448 448 347.7 448 224 C 448 100.30000000000001 347.7 0 224 0 Z M 0 0 M 224 400 C 126.8 400 48 321.2 48 224 C 48 126.80000000000001 126.8 48 224 48 C 321.2 48 400 126.8 400 224 C 400 321.2 321.2 400 224 400 Z"/></g></g></g></g><g transform="matrix(1,0,0,1,28,61)"/></g><g id="_54284D06-D52C-4A09-922E-D75C0194A962" bpmn2nodeid="_54284D06-D52C-4A09-922E-D75C0194A962"><g><path fill="none" stroke="#000000" paint-order="fill stroke markers" d=" M 191 662 L 425 662 L 420.18895423512527 280.10879518091326" stroke-miterlimit="10" stroke-dasharray=""/></g><g transform="matrix(1,0,0,1,191,662)"/><g transform="matrix(0.999920655290049,-0.012596949008351257,0.012596949008351257,0.999920655290049,415.0003967235497,265.1729700966043)"><path fill="#000000" stroke="#000000" paint-order="fill stroke markers" d=" M 10 15 L 0 15 L 5 0 Z" stroke-miterlimit="10" stroke-dasharray=""/></g><g transform="matrix(1,0,0,1,208,652)"/></g><g id="_ECB9F488-3313-4CCE-941B-47B950C585E3" bpmn2nodeid="_ECB9F488-3313-4CCE-941B-47B950C585E3"><g><path fill="none" stroke="#000000" paint-order="fill stroke markers" d=" M 497 214.1099853515625 L 576.0001100036899 214.41253947729834" stroke-miterlimit="10" stroke-dasharray=""/></g><g transform="matrix(1,0,0,1,497,214.1099853515625)"/><g transform="matrix(-0.003829765641048263,0.9999926664206766,-0.9999926664206766,-0.003829765641048263,591.0191488282053,209.47002262981067)"><path fill="#000000" stroke="#000000" paint-order="fill stroke markers" d=" M 10 15 L 0 15 L 5 0 Z" stroke-miterlimit="10" stroke-dasharray=""/></g><g transform="matrix(1,0,0,1,497.03829765641046,204.29005899253153)"/></g><g id="_F6B88762-FB92-4C3D-A1D3-606DF6E28442" bpmn2nodeid="_F6B88762-FB92-4C3D-A1D3-606DF6E28442"><g><path fill="none" stroke="#000000" paint-order="fill stroke markers" d=" M 619 186.46998596191406 L 619 130.7099838256836" stroke-miterlimit="10" stroke-dasharray=""/></g><g transform="matrix(1,0,0,1,619,186.46998596191406)"/><g transform="matrix(1,0,0,1,614,115.7099838256836)"><path fill="#000000" stroke="#000000" paint-order="fill stroke markers" d=" M 10 15 L 0 15 L 5 0 Z" stroke-miterlimit="10" stroke-dasharray=""/></g><g transform="matrix(1,0,0,1,629,118.08998489379883)"><text fill="#000000" stroke="none" font-family="Open Sans" font-size="10pt" font-style="normal" font-weight="normal" text-decoration="normal" x="0" y="8.8" text-anchor="start" dominant-baseline="alphabetic">Not              </text><text fill="#000000" stroke="none" font-family="Open Sans" font-size="10pt" font-style="normal" font-weight="normal" text-decoration="normal" x="0" y="19.8" text-anchor="start" dominant-baseline="alphabetic">enough       </text><text fill="#000000" stroke="none" font-family="Open Sans" font-size="10pt" font-style="normal" font-weight="normal" text-decoration="normal" x="0" y="30.799999999999997" text-anchor="start" dominant-baseline="alphabetic">data            </text></g></g><g id="_479EFD59-BAC9-433C-AC9D-B370488DD359" bpmn2nodeid="_479EFD59-BAC9-433C-AC9D-B370488DD359"><g><path fill="none" stroke="#000000" paint-order="fill stroke markers" d=" M 647 214.46998596191406 L 789.4600611762085 214.14427973927005" stroke-miterlimit="10" stroke-dasharray=""/></g><g transform="matrix(1,0,0,1,647,214.46998596191406)"/><g transform="matrix(0.0022862925138365836,0.9999973864298553,-0.9999973864298553,0.0022862925138365836,804.4485905100871,209.10999841941322)"><path fill="#000000" stroke="#000000" paint-order="fill stroke markers" d=" M 10 15 L 0 15 L 5 0 Z" stroke-miterlimit="10" stroke-dasharray=""/></g><g transform="matrix(1,0,0,1,647.0228629251384,193.2900117924397)"><text fill="#000000" stroke="none" font-family="Open Sans" font-size="10pt" font-style="normal" font-weight="normal" text-decoration="normal" x="0" y="8.8" text-anchor="start" dominant-baseline="alphabetic">YES                                       </text></g></g><g id="_3BA42982-DCA6-475A-8D70-AF9FB70EF197" bpmn2nodeid="_3BA42982-DCA6-475A-8D70-AF9FB70EF197"><g><path fill="none" stroke="#000000" paint-order="fill stroke markers" d=" M 860.4600219726562 214.1099853515625 L 1124.459976353053 214.48847421724508" stroke-miterlimit="10" stroke-dasharray=""/></g><g transform="matrix(1,0,0,1,860.4600219726562,214.1099853515625)"/><g transform="matrix(-0.0014336687201193705,0.9999989722964724,-0.9999989722964724,-0.0014336687201193705,1139.4671292811006,209.50998438656453)"><path fill="#000000" stroke="#000000" paint-order="fill stroke markers" d=" M 10 15 L 0 15 L 5 0 Z" stroke-miterlimit="10" stroke-dasharray=""/></g><g transform="matrix(1,0,0,1,899.9744309126321,193.30999257683996)"><text fill="#000000" stroke="none" font-family="Open Sans" font-size="10pt" font-style="normal" font-weight="normal" text-decoration="normal" x="0" y="8.8" text-anchor="start" dominant-baseline="alphabetic">Single Approval                              </text></g></g><g id="_1042B28E-E469-448B-96C8-3FE6F0168F86" bpmn2nodeid="_1042B28E-E469-448B-96C8-3FE6F0168F86"><g><path fill="none" stroke="#000000" paint-order="fill stroke markers" d=" M 1293.4599609375 214.50997924804688 L 1393.4599618445677 214.47520247718114" stroke-miterlimit="10" stroke-dasharray=""/></g><g transform="matrix(1,0,0,1,1293.4599609375,214.50997924804688)"/><g transform="matrix(0.00034776768447212375,0.9999999395288169,-0.9999999395288169,0.00034776768447212375,1408.4582220990776,209.46998626426998)"><path fill="#000000" stroke="#000000" paint-order="fill stroke markers" d=" M 10 15 L 0 15 L 5 0 Z" stroke-miterlimit="10" stroke-dasharray=""/></g><g transform="matrix(1,0,0,1,1293.4634386143448,204.4899832096923)"/></g><g id="_60492A52-48B8-4474-A374-2379D29213BE" bpmn2nodeid="_60492A52-48B8-4474-A374-2379D29213BE"><g><path fill="none" stroke="#000000" paint-order="fill stroke markers" d=" M 1436.4599609375 186.46998596191406 L 1436.4599609375 130.1099853515625" stroke-miterlimit="10" stroke-dasharray=""/></g><g transform="matrix(1,0,0,1,1436.4599609375,186.46998596191406)"/><g transform="matrix(1,0,0,1,1431.4599609375,115.1099853515625)"><path fill="#000000" stroke="#000000" paint-order="fill stroke markers" d=" M 10 15 L 0 15 L 5 0 Z" stroke-miterlimit="10" stroke-dasharray=""/></g><g transform="matrix(1,0,0,1,1446.4599609375,139.78998565673828)"><text fill="#000000" stroke="none" font-family="Open Sans" font-size="10pt" font-style="normal" font-weight="normal" text-decoration="normal" x="0" y="8.8" text-anchor="start" dominant-baseline="alphabetic">NO               </text></g></g><g id="_1F470DCE-3EA1-45B4-91E6-192D9403F95A" bpmn2nodeid="_1F470DCE-3EA1-45B4-91E6-192D9403F95A"><g><path fill="none" stroke="#000000" paint-order="fill stroke markers" d=" M 1464.4599609375 214.46998596191406 L 1564.0000740883404 214.15713028470225" stroke-miterlimit="10" stroke-dasharray=""/></g><g transform="matrix(1,0,0,1,1464.4599609375,214.46998596191406)"/><g transform="matrix(0.0031429955426498677,0.9999950607773115,-0.9999950607773115,0.0031429955426498677,1578.9842850222867,209.11001004767593)"><path fill="#000000" stroke="#000000" paint-order="fill stroke markers" d=" M 10 15 L 0 15 L 5 0 Z" stroke-miterlimit="10" stroke-dasharray=""/></g><g transform="matrix(1,0,0,1,1464.4913908929266,193.29003504896517)"><text fill="#000000" stroke="none" font-family="Open Sans" font-size="10pt" font-style="normal" font-weight="normal" text-decoration="normal" x="0" y="8.8" text-anchor="start" dominant-baseline="alphabetic">YES                           </text></g></g><g id="_ED00D23B-155B-4610-96C5-6DDB4592BA7C" bpmn2nodeid="_ED00D23B-155B-4610-96C5-6DDB4592BA7C"><g><path fill="none" stroke="#000000" paint-order="fill stroke markers" d=" M 832.4600219726562 242.1099853515625 L 832.4600219726562 374.5099792480469" stroke-miterlimit="10" stroke-dasharray=""/></g><g transform="matrix(1,0,0,1,832.4600219726562,242.1099853515625)"/><g transform="matrix(-1,1.2246467991473532e-16,-1.2246467991473532e-16,-1,837.4600219726562,389.5099792480469)"><path fill="#000000" stroke="#000000" paint-order="fill stroke markers" d=" M 10 15 L 0 15 L 5 0 Z" stroke-miterlimit="10" stroke-dasharray=""/></g><g transform="matrix(1,0,0,1,842.4600219726562,304.8099822998047)"><text fill="#000000" stroke="none" font-family="Open Sans" font-size="10pt" font-style="normal" font-weight="normal" text-decoration="normal" x="0" y="8.8" text-anchor="start" dominant-baseline="alphabetic">Dual  Approval Process  </text></g></g><g id="_00DE5765-2CEA-427C-A8C4-748924AE62D1" bpmn2nodeid="_00DE5765-2CEA-427C-A8C4-748924AE62D1"><g><path fill="none" stroke="#000000" paint-order="fill stroke markers" d=" M 860.4600219726562 417.5099792480469 L 910.1014945683255 416.80346100553345" stroke-miterlimit="10" stroke-dasharray=""/></g><g transform="matrix(1,0,0,1,860.4600219726562,417.5099792480469)"/><g transform="matrix(0.014230977842855033,0.9998987345074681,-0.9998987345074681,0.014230977842855033,925.0288206967232,411.59050266535326)"><path fill="#000000" stroke="#000000" paint-order="fill stroke markers" d=" M 10 15 L 0 15 L 5 0 Z" stroke-miterlimit="10" stroke-dasharray=""/></g><g transform="matrix(1,0,0,1,860.6023317510848,407.05100044789407)"/></g><g id="_586ED65A-1132-4271-86E3-6CE6CB5719B1" bpmn2nodeid="_586ED65A-1132-4271-86E3-6CE6CB5719B1"><g><path fill="none" stroke="#000000" paint-order="fill stroke markers" d=" M 1079.0999755859375 416.5899963378906 L 1178.0001563130281 417.0415064029043" stroke-miterlimit="10" stroke-dasharray=""/></g><g transform="matrix(1,0,0,1,1079.0999755859375,416.5899963378906)"/><g transform="matrix(-0.004565263243879725,0.9999895791314598,-0.9999895791314598,-0.004565263243879725,1193.0228263162194,412.1100374559052)"><path fill="#000000" stroke="#000000" paint-order="fill stroke markers" d=" M 10 15 L 0 15 L 5 0 Z" stroke-miterlimit="10" stroke-dasharray=""/></g><g transform="matrix(1,0,0,1,1079.1456282183763,406.85009505341196)"/></g><g id="_ECE7923D-98CF-4CFD-98F3-D0DD38221825" bpmn2nodeid="_ECE7923D-98CF-4CFD-98F3-D0DD38221825"><g><path fill="none" stroke="#000000" paint-order="fill stroke markers" d=" M 1221 445.1099853515625 L 1079.3010836623273 595.0964374912722" stroke-miterlimit="10" stroke-dasharray=""/></g><g transform="matrix(1,0,0,1,1221,445.1099853515625)"/><g transform="matrix(-0.7269041672485174,-0.6867389108218198,0.6867389108218198,-0.7269041672485174,1072.6345208362427,609.4336945541091)"><path fill="#000000" stroke="#000000" paint-order="fill stroke markers" d=" M 10 15 L 0 15 L 5 0 Z" stroke-miterlimit="10" stroke-dasharray=""/></g><g transform="matrix(1,0,0,1,1083.595150590303,518.6876035675631)"/></g><g id="_E70B134C-4982-486B-9BC1-B0809C8D5F84" bpmn2nodeid="_E70B134C-4982-486B-9BC1-B0809C8D5F84"><g><path fill="none" stroke="#000000" paint-order="fill stroke markers" d=" M 1097 634 L 1598 634" stroke-miterlimit="10" stroke-dasharray=""/></g><g transform="matrix(1,0,0,1,1097,634)"/><g transform="matrix(6.123233995736766e-17,1,-1,6.123233995736766e-17,1613,629)"><path fill="#000000" stroke="#000000" paint-order="fill stroke markers" d=" M 10 15 L 0 15 L 5 0 Z" stroke-miterlimit="10" stroke-dasharray=""/></g><g transform="matrix(1,0,0,1,1255,624)"/></g><g id="_C387F5A8-0477-4A7F-8194-39BEAC0DA474" bpmn2nodeid="_C387F5A8-0477-4A7F-8194-39BEAC0DA474"><g><path fill="none" stroke="#000000" paint-order="fill stroke markers" d=" M 1249 417.1099853515625 L 1564.4202198041246 415.5826134922985" stroke-miterlimit="10" stroke-dasharray=""/></g><g transform="matrix(1,0,0,1,1249,417.1099853515625)"/><g transform="matrix(0.004842282950107856,0.9999882760791904,-0.9999882760791904,0.004842282950107856,1579.3958325305618,410.5100378676509)"><path fill="#000000" stroke="#000000" paint-order="fill stroke markers" d=" M 10 15 L 0 15 L 5 0 Z" stroke-miterlimit="10" stroke-dasharray=""/></g><g transform="matrix(1,0,0,1,1314.2596171942382,395.3100995390128)"><text fill="#000000" stroke="none" font-family="Open Sans" font-size="10pt" font-style="normal" font-weight="normal" text-decoration="normal" x="0" y="8.8" text-anchor="start" dominant-baseline="alphabetic">NO                                                    </text></g></g><g id="_DA1AFC04-BC3B-4592-8D1A-BF41C5EAF6B4" bpmn2nodeid="_DA1AFC04-BC3B-4592-8D1A-BF41C5EAF6B4"><g><path fill="none" stroke="#000000" paint-order="fill stroke markers" d=" M 832.4600219726562 445.5099792480469 L 832.4600219726562 445.3999938964844 L 832.0197377674357 780.0000129859877" stroke-miterlimit="10" stroke-dasharray=""/></g><g transform="matrix(1,0,0,1,832.4600219726562,445.5099792480469)"/><g transform="matrix(-0.9999991342674844,-0.0013158511623790408,0.0013158511623790408,-0.9999991342674844,836.9999956713374,795.0065792558119)"><path fill="#000000" stroke="#000000" paint-order="fill stroke markers" d=" M 10 15 L 0 15 L 5 0 Z" stroke-miterlimit="10" stroke-dasharray=""/></g><g transform="matrix(1,0,0,1,842.4600219726562,445.4549865722656)"/></g><g id="_6D9A4F89-1363-4774-B7D1-5E3AD954EC2E" bpmn2nodeid="_6D9A4F89-1363-4774-B7D1-5E3AD954EC2E"><g><path fill="none" stroke="#000000" paint-order="fill stroke markers" d=" M 909 846 L 1032 846" stroke-miterlimit="10" stroke-dasharray=""/></g><g transform="matrix(1,0,0,1,909,846)"/><g transform="matrix(6.123233995736766e-17,1,-1,6.123233995736766e-17,1047,841)"><path fill="#000000" stroke="#000000" paint-order="fill stroke markers" d=" M 10 15 L 0 15 L 5 0 Z" stroke-miterlimit="10" stroke-dasharray=""/></g><g transform="matrix(1,0,0,1,909,836)"/></g><g id="_DEB5C868-19DB-43D1-A9D3-0A5C55D02BC8" bpmn2nodeid="_DEB5C868-19DB-43D1-A9D3-0A5C55D02BC8"><g><path fill="none" stroke="#000000" paint-order="fill stroke markers" d=" M 1075 818 L 1069.5764968315182 676.9889176194697" stroke-miterlimit="10" stroke-dasharray=""/></g><g transform="matrix(1,0,0,1,1075,818)"/><g transform="matrix(0.999261174631314,-0.038433122101211505,0.038433122101211505,0.999261174631314,1064.0036941268434,662.1921656105061)"><path fill="#000000" stroke="#000000" paint-order="fill stroke markers" d=" M 10 15 L 0 15 L 5 0 Z" stroke-miterlimit="10" stroke-dasharray=""/></g><g transform="matrix(1,0,0,1,1078.992611746313,739.6156687789879)"/></g><g id="_387B7EF0-527C-4489-852B-A678FCFC9479" bpmn2nodeid="_387B7EF0-527C-4489-852B-A678FCFC9479"><g><path fill="none" stroke="rgb(0,0,0)" paint-order="fill stroke markers" d=" M 1103 846 L 1308 846" stroke-miterlimit="10" stroke-dasharray=""/></g><g transform="matrix(1,0,0,1,1103,846)"/><g transform="matrix(6.123233995736766e-17,1,-1,6.123233995736766e-17,1323,841)"><path fill="rgb(0,0,0)" stroke="rgb(0,0,0)" paint-order="fill stroke markers" d=" M 10 15 L 0 15 L 5 0 Z" stroke-miterlimit="10" stroke-dasharray=""/></g><g transform="matrix(1,0,0,1,1113,836)"/></g><g id="_2450BB8E-8B1E-405C-9CCB-D78EF0D4896A" bpmn2nodeid="_2450BB8E-8B1E-405C-9CCB-D78EF0D4896A"><g><path fill="none" stroke="#000000" paint-order="fill stroke markers" d=" M 1075 874 L 1075 924" stroke-miterlimit="10" stroke-dasharray=""/></g><g transform="matrix(1,0,0,1,1075,874)"/><g transform="matrix(-1,1.2246467991473532e-16,-1.2246467991473532e-16,-1,1080,939)"><path fill="#000000" stroke="#000000" paint-order="fill stroke markers" d=" M 10 15 L 0 15 L 5 0 Z" stroke-miterlimit="10" stroke-dasharray=""/></g><g transform="matrix(1,0,0,1,1085,895.5)"><text fill="#000000" stroke="none" font-family="Open Sans" font-size="10pt" font-style="normal" font-weight="normal" text-decoration="normal" x="0" y="8.8" text-anchor="start" dominant-baseline="alphabetic">NO             </text></g></g><g id="_BA042F73-70F1-4EF4-821F-2EE393E14C64" bpmn2nodeid="_BA042F73-70F1-4EF4-821F-2EE393E14C64"><g><path fill="none" stroke="#000000" paint-order="fill stroke markers" d=" M 832.4600219726562 186.1099853515625 L 832.1626208563088 114.89985545218943" stroke-miterlimit="10" stroke-dasharray=""/></g><g transform="matrix(1,0,0,1,832.4600219726562,186.1099853515625)"/><g transform="matrix(0.9999912790066391,-0.004176351358084311,0.004176351358084311,0.9999912790066391,827.1000191909043,99.92086802388026)"><path fill="#000000" stroke="#000000" paint-order="fill stroke markers" d=" M 10 15 L 0 15 L 5 0 Z" stroke-miterlimit="10" stroke-dasharray=""/></g><g transform="matrix(1,0,0,1,842.099888376004,120.96322229574537)"><text fill="#000000" stroke="none" font-family="Open Sans" font-size="10pt" font-style="normal" font-weight="normal" text-decoration="normal" x="0" y="8.8" text-anchor="start" dominant-baseline="alphabetic">Automatically</text><text fill="#000000" stroke="none" font-family="Open Sans" font-size="10pt" font-style="normal" font-weight="normal" text-decoration="normal" x="0" y="19.8" text-anchor="start" dominant-baseline="alphabetic">Approved        </text></g></g><g transform="matrix(1,0,0,1,290.20001220703125,39.1099853515625)"/><g transform="matrix(1,0,0,1,1579.4200439453125,387.5099792480469)"/><g transform="matrix(1,0,0,1,1408.4599609375,186.46998596191406)"/><g transform="matrix(1,0,0,1,925.0999755859375,365.5899963378906)"/><g transform="matrix(1,0,0,1,804.0999755859375,43.899986267089844)"/><g transform="matrix(1,0,0,1,804.4600219726562,389.5099792480469)"/><g transform="matrix(1,0,0,1,1139.4599609375,163.50997924804688)"/><g transform="matrix(1,0,0,1,1193,389.1099853515625)"/><g transform="matrix(1,0,0,1,1408.4599609375,59.1099853515625)"/><g transform="matrix(1,0,0,1,591,59.709983825683594)"/><g transform="matrix(1,0,0,1,591,186.46998596191406)"/><g transform="matrix(1,0,0,1,1579,186.1099853515625)"/><g transform="matrix(1,0,0,1,804.4600219726562,186.1099853515625)"/><g transform="matrix(1,0,0,1,289.68499755859375,704)"/><g transform="matrix(1,0,0,1,1047,939)"/><g transform="matrix(1,0,0,1,1047,818)"/><g transform="matrix(1,0,0,1,1323,818)"/><g transform="matrix(1,0,0,1,135,634)"/><g transform="matrix(1,0,0,1,1041,606)"/><g transform="matrix(1,0,0,1,1613,606)"/><g transform="matrix(1,0,0,1,343,163.1099853515625)"/><g transform="matrix(1,0,0,1,755,795)"/></g></g></svg>